<svg width="20" height="22" viewBox="0 0 20 22" fill="none" xmlns="http://www.w3.org/2000/svg">
<g id="asd 1">
<g id="Path 0">
<mask id="path-1-outside-1_14_743" maskUnits="userSpaceOnUse" x="0.0175781" y="0.389893" width="20" height="19" fill="black">
<rect fill="white" x="0.0175781" y="0.389893" width="20" height="19"/>
<path fill-rule="evenodd" clip-rule="evenodd" d="M10.2109 1.39023C10.3375 1.38671 10.6223 1.41132 10.8438 1.44296C11.0652 1.47109 11.3992 1.53437 11.582 1.58007C11.7648 1.62577 12.0602 1.7207 12.2324 1.79101C12.4047 1.86132 12.6824 1.99492 12.8477 2.08984C13.0129 2.18124 13.2906 2.36757 13.4629 2.50117C13.6352 2.63827 13.9129 2.88788 14.0746 3.06015C14.2328 3.23241 14.4613 3.51366 14.5773 3.68945C14.6934 3.86523 14.8586 4.14296 14.943 4.31523C15.0273 4.48398 15.1469 4.76874 15.2066 4.94804C15.2664 5.12382 15.3438 5.42265 15.3789 5.60546C15.4141 5.78827 15.4563 6.06952 15.502 6.51601L15.7305 6.59335C15.857 6.63554 16.0855 6.72695 16.2402 6.79726C16.3949 6.86757 16.6551 7.01523 16.8203 7.1207C16.9855 7.22968 17.2352 7.41601 17.3793 7.54257C17.5234 7.66562 17.7379 7.8871 17.8574 8.03124C17.977 8.17538 18.1492 8.40741 18.2336 8.54101C18.3215 8.6746 18.441 8.88202 18.5008 8.99804C18.557 9.11406 18.6555 9.35312 18.7188 9.52538C18.7785 9.69765 18.8664 10.0246 18.9156 10.2461C18.9824 10.559 19 10.7559 19 11.125C19 11.4906 18.9789 11.6945 18.9156 12.0039C18.8699 12.2254 18.7961 12.5101 18.7539 12.6367C18.7117 12.7633 18.6133 12.9988 18.5395 13.1641C18.4621 13.3293 18.2934 13.6211 18.1633 13.8144C18.0262 14.0219 17.7941 14.3031 17.5938 14.5C17.4109 14.6828 17.1086 14.9359 16.9258 15.0625C16.743 15.1855 16.4336 15.3613 16.2402 15.4527C16.0469 15.5441 15.7445 15.6601 15.5723 15.7094C15.4 15.7586 15.0906 15.8254 14.8867 15.8535C14.6828 15.8816 14.4719 15.9098 14.4121 15.9133C14.3172 15.9238 14.3066 15.9379 14.282 16.082C14.268 16.1699 14.2223 16.3422 14.1801 16.4687C14.1379 16.5953 14.043 16.8238 13.9656 16.9785C13.8883 17.1332 13.7582 17.3547 13.6738 17.4707C13.593 17.5867 13.4172 17.7906 13.2836 17.9242C13.15 18.0578 12.9461 18.2336 12.8301 18.3144C12.7141 18.3988 12.4926 18.5289 12.3379 18.6062C12.1832 18.6836 11.9547 18.7785 11.8281 18.8172C11.7016 18.8594 11.4941 18.9156 11.3605 18.9473C11.2199 18.9789 10.9563 19 10.7031 19C10.4711 19 10.2074 18.9824 10.1125 18.9613C10.0211 18.9402 9.81367 18.8805 9.64844 18.8348C9.4832 18.7855 9.22305 18.6836 9.06836 18.6062C8.91367 18.5289 8.69219 18.3988 8.57617 18.3144C8.46016 18.2336 8.25625 18.0578 8.12266 17.9242C7.98906 17.7906 7.81328 17.5867 7.73242 17.4707C7.64805 17.3547 7.51797 17.1332 7.44062 16.9785C7.36328 16.8238 7.26133 16.5707 7.21211 16.416C7.16289 16.2613 7.10313 15.9906 7.08203 15.8184C7.05742 15.6461 7.04336 15.3719 7.06445 14.9219L4.33984 14.9148C1.75937 14.9043 1.6082 14.9008 1.49219 14.8375C1.42539 14.8023 1.32344 14.732 1.2707 14.6793C1.21445 14.6301 1.13359 14.5246 1.01758 14.3066V6.25585L1.09492 6.11523C1.13359 6.03788 1.21445 5.93241 1.2707 5.8832C1.32344 5.83046 1.42539 5.76015 1.49219 5.72499C1.6082 5.66171 1.73477 5.6582 5.16602 5.64062L5.23281 5.3664C5.26797 5.21874 5.34883 4.9621 5.41211 4.79687C5.47539 4.63163 5.58086 4.38554 5.64766 4.25195C5.71797 4.11835 5.87266 3.85468 5.9957 3.67187C6.13281 3.46445 6.36836 3.19023 6.60742 2.95116C6.81836 2.73671 7.13828 2.46601 7.31055 2.34648C7.48281 2.23046 7.78516 2.05468 7.97852 1.95624C8.17188 1.86132 8.45664 1.74179 8.61133 1.69257C8.76602 1.64335 8.96289 1.58359 9.05078 1.55898C9.13867 1.53788 9.38125 1.48866 9.5957 1.45702C9.81016 1.42187 10.0844 1.39374 10.2109 1.39023ZM8.92773 2.19882C8.73438 2.25859 8.45664 2.36406 8.3125 2.43085C8.16836 2.49765 7.89062 2.65585 7.69727 2.78593C7.48984 2.92304 7.20859 3.15859 7.01172 3.35546C6.81484 3.55234 6.5793 3.83359 6.44219 4.04101C6.31211 4.23437 6.15039 4.5121 6.08359 4.65624C6.0168 4.80038 5.92539 5.03945 5.87617 5.18359C5.82695 5.32773 5.78125 5.48945 5.76719 5.5457L5.74609 5.64062C9.54297 5.6582 9.67305 5.66171 9.78906 5.72499C9.85586 5.76015 9.95781 5.83046 10.0105 5.8832C10.0668 5.93241 10.1477 6.03788 10.1863 6.11523C10.2602 6.24882 10.2637 6.31562 10.2812 7.3246L10.2988 8.38984C10.4887 8.12616 10.6398 7.94687 10.7559 7.82382C10.8719 7.70077 11.0934 7.50038 11.248 7.38437C11.4027 7.26484 11.5926 7.12773 11.6699 7.07851C11.7473 7.02577 11.9371 6.92382 12.0918 6.84648C12.2465 6.76562 12.5172 6.65663 12.6895 6.59687C12.8617 6.5371 13.15 6.46327 13.3223 6.4246C13.5613 6.3789 13.7969 6.36132 14.282 6.36132H14.9254C14.8902 6.03437 14.8586 5.82695 14.8305 5.69335C14.8023 5.55976 14.7391 5.3207 14.6863 5.16601C14.6371 5.01132 14.5211 4.73359 14.4297 4.55077C14.3348 4.36796 14.159 4.07616 14.0395 3.9039C13.9164 3.73163 13.6809 3.46445 13.5156 3.30624C13.3504 3.14804 13.0973 2.93359 12.9531 2.83163C12.809 2.72968 12.5523 2.57499 12.3801 2.49062C12.2113 2.40624 11.9371 2.29023 11.7684 2.23398C11.5961 2.17773 11.3324 2.1039 11.1777 2.07226C11.023 2.04062 10.675 2.00898 10.4043 1.99843C10.0809 1.9914 9.80313 2.00546 9.5957 2.0371C9.42344 2.06523 9.12109 2.13906 8.92773 2.19882ZM1.56953 6.40702L1.5625 14.1484L1.77344 14.3594H9.51484L9.71875 14.1484V6.41406L9.50781 6.20312H1.76641L1.56953 6.40702ZM13.4137 6.99062C13.2695 7.01874 13.0234 7.08554 12.8688 7.13476C12.7141 7.18749 12.475 7.28593 12.3414 7.35273C12.2043 7.42304 11.9828 7.55312 11.8492 7.64452C11.7121 7.73593 11.4766 7.92577 11.3254 8.06992C11.1742 8.21054 10.9598 8.44609 10.8508 8.59374C10.7418 8.73788 10.5695 9.01913 10.4676 9.21601L10.2848 9.57812V11.7051C11.1426 11.7086 11.3184 11.7262 11.5504 11.7859C11.7156 11.8281 11.9512 11.9019 12.0777 11.9512C12.2043 12.0039 12.4082 12.1059 12.5348 12.1762C12.6613 12.25 12.8406 12.373 12.9391 12.4469C13.034 12.5242 13.2063 12.6789 13.3187 12.7949C13.4348 12.9109 13.593 13.1008 13.6773 13.2168C13.7617 13.3328 13.8848 13.5367 13.9551 13.6738C14.0219 13.8074 14.1203 14.0359 14.1695 14.1836C14.2188 14.3277 14.282 14.5879 14.3102 14.7637C14.3383 14.9359 14.3629 15.1434 14.3629 15.2207V15.3613C14.7039 15.3156 14.9289 15.2805 15.0836 15.2488C15.2383 15.2172 15.4738 15.1539 15.6109 15.1047C15.7445 15.059 15.9977 14.9465 16.1734 14.8551C16.3457 14.7672 16.6094 14.6055 16.7535 14.4965C16.8977 14.3875 17.1367 14.173 17.2809 14.0184C17.425 13.8637 17.6184 13.6281 17.7063 13.4945C17.7941 13.3609 17.9277 13.1324 18.0016 12.9883C18.0719 12.8406 18.1773 12.5875 18.2301 12.4258C18.2863 12.2605 18.3531 11.9582 18.3848 11.7578C18.4164 11.5539 18.441 11.2691 18.441 11.125C18.441 10.9773 18.4164 10.7101 18.3883 10.5273C18.3602 10.341 18.3039 10.0738 18.2652 9.92968C18.223 9.78202 18.107 9.49023 18.0016 9.27929C17.8961 9.06484 17.7098 8.75546 17.5867 8.59374C17.4637 8.42851 17.2422 8.18593 17.1016 8.05234C16.9574 7.91874 16.7148 7.72538 16.5602 7.62343C16.4055 7.52148 16.1418 7.37031 15.9695 7.29296C15.8008 7.21562 15.5477 7.11718 15.407 7.07851C15.2699 7.03984 15.0027 6.98359 14.8199 6.95546C14.6371 6.92734 14.3594 6.90624 14.2047 6.90976C14.05 6.91327 13.8672 6.92031 13.8004 6.92734C13.7336 6.93437 13.5578 6.96249 13.4137 6.99062ZM10.2707 12.2887C10.2672 14.2117 10.2602 14.3172 10.2004 14.4297C10.1652 14.4965 10.0949 14.5949 10.0422 14.6512C9.99297 14.7074 9.8875 14.7848 9.81016 14.8269C9.67656 14.8973 9.6168 14.9043 8.66758 14.9113L7.66563 14.9219C7.62344 15.0976 7.61289 15.2453 7.61289 15.3613C7.61289 15.4773 7.6375 15.7094 7.66563 15.8781C7.69375 16.0469 7.76055 16.3 7.8168 16.4406C7.86953 16.5812 7.99258 16.8238 8.0875 16.9785C8.18242 17.1332 8.3793 17.3758 8.52695 17.5234C8.67109 17.6676 8.91719 17.868 9.07188 17.9629C9.22656 18.0578 9.46914 18.1809 9.60625 18.2336C9.74687 18.2863 10 18.3531 10.1687 18.3848C10.341 18.4129 10.5801 18.4375 10.7066 18.4375C10.8332 18.4375 11.0723 18.4129 11.241 18.3848C11.4133 18.3531 11.6664 18.2863 11.8035 18.2336C11.9441 18.1809 12.1867 18.0578 12.3414 17.9629C12.4961 17.868 12.7422 17.6676 12.8863 17.5234C13.034 17.3758 13.2309 17.1332 13.3258 16.9785C13.4207 16.8238 13.5437 16.5812 13.5965 16.4406C13.6492 16.3 13.7195 16.0469 13.7477 15.8781C13.7758 15.7094 13.8004 15.4668 13.8004 15.3437C13.8004 15.2172 13.7758 14.9746 13.7477 14.8059C13.7195 14.6371 13.6492 14.384 13.5965 14.2434C13.5437 14.1027 13.4207 13.8637 13.3258 13.709C13.2309 13.5543 13.041 13.3117 12.9039 13.1746C12.7703 13.0375 12.5312 12.8441 12.3766 12.7422C12.2219 12.6437 11.9723 12.5137 11.8211 12.4574C11.6734 12.4012 11.4133 12.3309 11.241 12.2992C11.0723 12.2711 10.8227 12.25 10.6891 12.2535C10.552 12.257 10.4043 12.2641 10.3551 12.2746L10.2707 12.2887ZM5.54922 7.59179C5.71797 7.59882 6.00977 7.64101 6.19961 7.67968C6.38945 7.72187 6.68828 7.79921 6.86758 7.85546C7.06445 7.91874 7.22266 7.98906 7.26484 8.03827C7.30352 8.08046 7.33516 8.16484 7.33164 8.22109C7.33164 8.28085 7.29648 8.36171 7.2543 8.40741C7.20508 8.45663 7.13477 8.48827 7.06797 8.48827C7.01172 8.48827 6.84648 8.44609 6.69883 8.39687C6.55469 8.34765 6.27695 8.27382 6.08359 8.23163C5.87969 8.18593 5.6125 8.15429 5.4332 8.15429C5.2293 8.15429 5.07461 8.17538 4.94102 8.22109C4.825 8.26327 4.69141 8.34413 4.60352 8.43202C4.52266 8.51288 4.43828 8.63593 4.41367 8.71327C4.39258 8.79062 4.38203 8.91366 4.39258 8.98749C4.40664 9.07187 4.45938 9.16327 4.54727 9.25116C4.62109 9.32499 4.77227 9.42695 4.88828 9.4832C5.0043 9.53945 5.40156 9.6871 5.76719 9.81015C6.13633 9.93671 6.55469 10.0984 6.69883 10.1758C6.84648 10.2496 7.03984 10.3867 7.13125 10.4781C7.22617 10.573 7.33516 10.7207 7.37734 10.8051C7.44062 10.9316 7.45469 11.0266 7.45469 11.2621C7.45469 11.5082 7.43711 11.5961 7.36328 11.7543C7.31406 11.8633 7.22266 12.0109 7.15586 12.0883C7.08906 12.1621 6.93789 12.2851 6.82188 12.3625C6.70586 12.4363 6.50898 12.5277 6.38242 12.5664C6.25938 12.6051 6.02031 12.6508 5.85508 12.6684C5.66523 12.6894 5.44023 12.6894 5.22227 12.6684C5.03945 12.6473 4.74062 12.6016 4.5543 12.5629C4.37148 12.5242 4.16406 12.475 4.09023 12.4574C4.01641 12.4398 3.925 12.3906 3.88633 12.3519C3.84414 12.3098 3.81602 12.2359 3.81602 12.1586C3.81836 12.0766 3.84531 12.0109 3.89688 11.9617C3.96367 11.8984 4.00234 11.8879 4.13242 11.9055C4.22031 11.916 4.44883 11.9582 4.64219 12.0004C4.83555 12.0426 5.13789 12.0883 5.31016 12.1023C5.48594 12.1199 5.73203 12.1199 5.85508 12.1023C5.98164 12.0883 6.17852 12.0426 6.29453 11.9969C6.41055 11.9547 6.56875 11.8598 6.64609 11.793C6.71992 11.7226 6.81133 11.6031 6.84648 11.5258C6.88164 11.4484 6.90977 11.3359 6.90977 11.2726C6.90977 11.2094 6.88516 11.1004 6.85 11.0266C6.81484 10.9562 6.72344 10.8508 6.64609 10.7945C6.56875 10.7383 6.43516 10.6609 6.34727 10.6223C6.26289 10.5836 5.89023 10.45 5.52109 10.3269C5.15547 10.2004 4.73008 10.0316 4.57539 9.95078C4.39023 9.85234 4.23555 9.73632 4.11133 9.60273C3.9707 9.44804 3.90742 9.3496 3.86523 9.19843C3.82656 9.05781 3.81602 8.92773 3.83008 8.78359C3.84063 8.65702 3.88984 8.48827 3.95312 8.36171C4.00938 8.2457 4.12539 8.09101 4.20977 8.01718C4.29414 7.93984 4.47344 7.82734 4.60703 7.76054C4.74414 7.69726 4.94102 7.62695 5.04648 7.60937C5.15547 7.59179 5.38047 7.58124 5.54922 7.59179Z"/>
</mask>
<path fill-rule="evenodd" clip-rule="evenodd" d="M10.2109 1.39023C10.3375 1.38671 10.6223 1.41132 10.8438 1.44296C11.0652 1.47109 11.3992 1.53437 11.582 1.58007C11.7648 1.62577 12.0602 1.7207 12.2324 1.79101C12.4047 1.86132 12.6824 1.99492 12.8477 2.08984C13.0129 2.18124 13.2906 2.36757 13.4629 2.50117C13.6352 2.63827 13.9129 2.88788 14.0746 3.06015C14.2328 3.23241 14.4613 3.51366 14.5773 3.68945C14.6934 3.86523 14.8586 4.14296 14.943 4.31523C15.0273 4.48398 15.1469 4.76874 15.2066 4.94804C15.2664 5.12382 15.3438 5.42265 15.3789 5.60546C15.4141 5.78827 15.4563 6.06952 15.502 6.51601L15.7305 6.59335C15.857 6.63554 16.0855 6.72695 16.2402 6.79726C16.3949 6.86757 16.6551 7.01523 16.8203 7.1207C16.9855 7.22968 17.2352 7.41601 17.3793 7.54257C17.5234 7.66562 17.7379 7.8871 17.8574 8.03124C17.977 8.17538 18.1492 8.40741 18.2336 8.54101C18.3215 8.6746 18.441 8.88202 18.5008 8.99804C18.557 9.11406 18.6555 9.35312 18.7188 9.52538C18.7785 9.69765 18.8664 10.0246 18.9156 10.2461C18.9824 10.559 19 10.7559 19 11.125C19 11.4906 18.9789 11.6945 18.9156 12.0039C18.8699 12.2254 18.7961 12.5101 18.7539 12.6367C18.7117 12.7633 18.6133 12.9988 18.5395 13.1641C18.4621 13.3293 18.2934 13.6211 18.1633 13.8144C18.0262 14.0219 17.7941 14.3031 17.5938 14.5C17.4109 14.6828 17.1086 14.9359 16.9258 15.0625C16.743 15.1855 16.4336 15.3613 16.2402 15.4527C16.0469 15.5441 15.7445 15.6601 15.5723 15.7094C15.4 15.7586 15.0906 15.8254 14.8867 15.8535C14.6828 15.8816 14.4719 15.9098 14.4121 15.9133C14.3172 15.9238 14.3066 15.9379 14.282 16.082C14.268 16.1699 14.2223 16.3422 14.1801 16.4687C14.1379 16.5953 14.043 16.8238 13.9656 16.9785C13.8883 17.1332 13.7582 17.3547 13.6738 17.4707C13.593 17.5867 13.4172 17.7906 13.2836 17.9242C13.15 18.0578 12.9461 18.2336 12.8301 18.3144C12.7141 18.3988 12.4926 18.5289 12.3379 18.6062C12.1832 18.6836 11.9547 18.7785 11.8281 18.8172C11.7016 18.8594 11.4941 18.9156 11.3605 18.9473C11.2199 18.9789 10.9563 19 10.7031 19C10.4711 19 10.2074 18.9824 10.1125 18.9613C10.0211 18.9402 9.81367 18.8805 9.64844 18.8348C9.4832 18.7855 9.22305 18.6836 9.06836 18.6062C8.91367 18.5289 8.69219 18.3988 8.57617 18.3144C8.46016 18.2336 8.25625 18.0578 8.12266 17.9242C7.98906 17.7906 7.81328 17.5867 7.73242 17.4707C7.64805 17.3547 7.51797 17.1332 7.44062 16.9785C7.36328 16.8238 7.26133 16.5707 7.21211 16.416C7.16289 16.2613 7.10313 15.9906 7.08203 15.8184C7.05742 15.6461 7.04336 15.3719 7.06445 14.9219L4.33984 14.9148C1.75937 14.9043 1.6082 14.9008 1.49219 14.8375C1.42539 14.8023 1.32344 14.732 1.2707 14.6793C1.21445 14.6301 1.13359 14.5246 1.01758 14.3066V6.25585L1.09492 6.11523C1.13359 6.03788 1.21445 5.93241 1.2707 5.8832C1.32344 5.83046 1.42539 5.76015 1.49219 5.72499C1.6082 5.66171 1.73477 5.6582 5.16602 5.64062L5.23281 5.3664C5.26797 5.21874 5.34883 4.9621 5.41211 4.79687C5.47539 4.63163 5.58086 4.38554 5.64766 4.25195C5.71797 4.11835 5.87266 3.85468 5.9957 3.67187C6.13281 3.46445 6.36836 3.19023 6.60742 2.95116C6.81836 2.73671 7.13828 2.46601 7.31055 2.34648C7.48281 2.23046 7.78516 2.05468 7.97852 1.95624C8.17188 1.86132 8.45664 1.74179 8.61133 1.69257C8.76602 1.64335 8.96289 1.58359 9.05078 1.55898C9.13867 1.53788 9.38125 1.48866 9.5957 1.45702C9.81016 1.42187 10.0844 1.39374 10.2109 1.39023ZM8.92773 2.19882C8.73438 2.25859 8.45664 2.36406 8.3125 2.43085C8.16836 2.49765 7.89062 2.65585 7.69727 2.78593C7.48984 2.92304 7.20859 3.15859 7.01172 3.35546C6.81484 3.55234 6.5793 3.83359 6.44219 4.04101C6.31211 4.23437 6.15039 4.5121 6.08359 4.65624C6.0168 4.80038 5.92539 5.03945 5.87617 5.18359C5.82695 5.32773 5.78125 5.48945 5.76719 5.5457L5.74609 5.64062C9.54297 5.6582 9.67305 5.66171 9.78906 5.72499C9.85586 5.76015 9.95781 5.83046 10.0105 5.8832C10.0668 5.93241 10.1477 6.03788 10.1863 6.11523C10.2602 6.24882 10.2637 6.31562 10.2812 7.3246L10.2988 8.38984C10.4887 8.12616 10.6398 7.94687 10.7559 7.82382C10.8719 7.70077 11.0934 7.50038 11.248 7.38437C11.4027 7.26484 11.5926 7.12773 11.6699 7.07851C11.7473 7.02577 11.9371 6.92382 12.0918 6.84648C12.2465 6.76562 12.5172 6.65663 12.6895 6.59687C12.8617 6.5371 13.15 6.46327 13.3223 6.4246C13.5613 6.3789 13.7969 6.36132 14.282 6.36132H14.9254C14.8902 6.03437 14.8586 5.82695 14.8305 5.69335C14.8023 5.55976 14.7391 5.3207 14.6863 5.16601C14.6371 5.01132 14.5211 4.73359 14.4297 4.55077C14.3348 4.36796 14.159 4.07616 14.0395 3.9039C13.9164 3.73163 13.6809 3.46445 13.5156 3.30624C13.3504 3.14804 13.0973 2.93359 12.9531 2.83163C12.809 2.72968 12.5523 2.57499 12.3801 2.49062C12.2113 2.40624 11.9371 2.29023 11.7684 2.23398C11.5961 2.17773 11.3324 2.1039 11.1777 2.07226C11.023 2.04062 10.675 2.00898 10.4043 1.99843C10.0809 1.9914 9.80313 2.00546 9.5957 2.0371C9.42344 2.06523 9.12109 2.13906 8.92773 2.19882ZM1.56953 6.40702L1.5625 14.1484L1.77344 14.3594H9.51484L9.71875 14.1484V6.41406L9.50781 6.20312H1.76641L1.56953 6.40702ZM13.4137 6.99062C13.2695 7.01874 13.0234 7.08554 12.8688 7.13476C12.7141 7.18749 12.475 7.28593 12.3414 7.35273C12.2043 7.42304 11.9828 7.55312 11.8492 7.64452C11.7121 7.73593 11.4766 7.92577 11.3254 8.06992C11.1742 8.21054 10.9598 8.44609 10.8508 8.59374C10.7418 8.73788 10.5695 9.01913 10.4676 9.21601L10.2848 9.57812V11.7051C11.1426 11.7086 11.3184 11.7262 11.5504 11.7859C11.7156 11.8281 11.9512 11.9019 12.0777 11.9512C12.2043 12.0039 12.4082 12.1059 12.5348 12.1762C12.6613 12.25 12.8406 12.373 12.9391 12.4469C13.034 12.5242 13.2063 12.6789 13.3187 12.7949C13.4348 12.9109 13.593 13.1008 13.6773 13.2168C13.7617 13.3328 13.8848 13.5367 13.9551 13.6738C14.0219 13.8074 14.1203 14.0359 14.1695 14.1836C14.2188 14.3277 14.282 14.5879 14.3102 14.7637C14.3383 14.9359 14.3629 15.1434 14.3629 15.2207V15.3613C14.7039 15.3156 14.9289 15.2805 15.0836 15.2488C15.2383 15.2172 15.4738 15.1539 15.6109 15.1047C15.7445 15.059 15.9977 14.9465 16.1734 14.8551C16.3457 14.7672 16.6094 14.6055 16.7535 14.4965C16.8977 14.3875 17.1367 14.173 17.2809 14.0184C17.425 13.8637 17.6184 13.6281 17.7063 13.4945C17.7941 13.3609 17.9277 13.1324 18.0016 12.9883C18.0719 12.8406 18.1773 12.5875 18.2301 12.4258C18.2863 12.2605 18.3531 11.9582 18.3848 11.7578C18.4164 11.5539 18.441 11.2691 18.441 11.125C18.441 10.9773 18.4164 10.7101 18.3883 10.5273C18.3602 10.341 18.3039 10.0738 18.2652 9.92968C18.223 9.78202 18.107 9.49023 18.0016 9.27929C17.8961 9.06484 17.7098 8.75546 17.5867 8.59374C17.4637 8.42851 17.2422 8.18593 17.1016 8.05234C16.9574 7.91874 16.7148 7.72538 16.5602 7.62343C16.4055 7.52148 16.1418 7.37031 15.9695 7.29296C15.8008 7.21562 15.5477 7.11718 15.407 7.07851C15.2699 7.03984 15.0027 6.98359 14.8199 6.95546C14.6371 6.92734 14.3594 6.90624 14.2047 6.90976C14.05 6.91327 13.8672 6.92031 13.8004 6.92734C13.7336 6.93437 13.5578 6.96249 13.4137 6.99062ZM10.2707 12.2887C10.2672 14.2117 10.2602 14.3172 10.2004 14.4297C10.1652 14.4965 10.0949 14.5949 10.0422 14.6512C9.99297 14.7074 9.8875 14.7848 9.81016 14.8269C9.67656 14.8973 9.6168 14.9043 8.66758 14.9113L7.66563 14.9219C7.62344 15.0976 7.61289 15.2453 7.61289 15.3613C7.61289 15.4773 7.6375 15.7094 7.66563 15.8781C7.69375 16.0469 7.76055 16.3 7.8168 16.4406C7.86953 16.5812 7.99258 16.8238 8.0875 16.9785C8.18242 17.1332 8.3793 17.3758 8.52695 17.5234C8.67109 17.6676 8.91719 17.868 9.07188 17.9629C9.22656 18.0578 9.46914 18.1809 9.60625 18.2336C9.74687 18.2863 10 18.3531 10.1687 18.3848C10.341 18.4129 10.5801 18.4375 10.7066 18.4375C10.8332 18.4375 11.0723 18.4129 11.241 18.3848C11.4133 18.3531 11.6664 18.2863 11.8035 18.2336C11.9441 18.1809 12.1867 18.0578 12.3414 17.9629C12.4961 17.868 12.7422 17.6676 12.8863 17.5234C13.034 17.3758 13.2309 17.1332 13.3258 16.9785C13.4207 16.8238 13.5437 16.5812 13.5965 16.4406C13.6492 16.3 13.7195 16.0469 13.7477 15.8781C13.7758 15.7094 13.8004 15.4668 13.8004 15.3437C13.8004 15.2172 13.7758 14.9746 13.7477 14.8059C13.7195 14.6371 13.6492 14.384 13.5965 14.2434C13.5437 14.1027 13.4207 13.8637 13.3258 13.709C13.2309 13.5543 13.041 13.3117 12.9039 13.1746C12.7703 13.0375 12.5312 12.8441 12.3766 12.7422C12.2219 12.6437 11.9723 12.5137 11.8211 12.4574C11.6734 12.4012 11.4133 12.3309 11.241 12.2992C11.0723 12.2711 10.8227 12.25 10.6891 12.2535C10.552 12.257 10.4043 12.2641 10.3551 12.2746L10.2707 12.2887ZM5.54922 7.59179C5.71797 7.59882 6.00977 7.64101 6.19961 7.67968C6.38945 7.72187 6.68828 7.79921 6.86758 7.85546C7.06445 7.91874 7.22266 7.98906 7.26484 8.03827C7.30352 8.08046 7.33516 8.16484 7.33164 8.22109C7.33164 8.28085 7.29648 8.36171 7.2543 8.40741C7.20508 8.45663 7.13477 8.48827 7.06797 8.48827C7.01172 8.48827 6.84648 8.44609 6.69883 8.39687C6.55469 8.34765 6.27695 8.27382 6.08359 8.23163C5.87969 8.18593 5.6125 8.15429 5.4332 8.15429C5.2293 8.15429 5.07461 8.17538 4.94102 8.22109C4.825 8.26327 4.69141 8.34413 4.60352 8.43202C4.52266 8.51288 4.43828 8.63593 4.41367 8.71327C4.39258 8.79062 4.38203 8.91366 4.39258 8.98749C4.40664 9.07187 4.45938 9.16327 4.54727 9.25116C4.62109 9.32499 4.77227 9.42695 4.88828 9.4832C5.0043 9.53945 5.40156 9.6871 5.76719 9.81015C6.13633 9.93671 6.55469 10.0984 6.69883 10.1758C6.84648 10.2496 7.03984 10.3867 7.13125 10.4781C7.22617 10.573 7.33516 10.7207 7.37734 10.8051C7.44062 10.9316 7.45469 11.0266 7.45469 11.2621C7.45469 11.5082 7.43711 11.5961 7.36328 11.7543C7.31406 11.8633 7.22266 12.0109 7.15586 12.0883C7.08906 12.1621 6.93789 12.2851 6.82188 12.3625C6.70586 12.4363 6.50898 12.5277 6.38242 12.5664C6.25938 12.6051 6.02031 12.6508 5.85508 12.6684C5.66523 12.6894 5.44023 12.6894 5.22227 12.6684C5.03945 12.6473 4.74062 12.6016 4.5543 12.5629C4.37148 12.5242 4.16406 12.475 4.09023 12.4574C4.01641 12.4398 3.925 12.3906 3.88633 12.3519C3.84414 12.3098 3.81602 12.2359 3.81602 12.1586C3.81836 12.0766 3.84531 12.0109 3.89688 11.9617C3.96367 11.8984 4.00234 11.8879 4.13242 11.9055C4.22031 11.916 4.44883 11.9582 4.64219 12.0004C4.83555 12.0426 5.13789 12.0883 5.31016 12.1023C5.48594 12.1199 5.73203 12.1199 5.85508 12.1023C5.98164 12.0883 6.17852 12.0426 6.29453 11.9969C6.41055 11.9547 6.56875 11.8598 6.64609 11.793C6.71992 11.7226 6.81133 11.6031 6.84648 11.5258C6.88164 11.4484 6.90977 11.3359 6.90977 11.2726C6.90977 11.2094 6.88516 11.1004 6.85 11.0266C6.81484 10.9562 6.72344 10.8508 6.64609 10.7945C6.56875 10.7383 6.43516 10.6609 6.34727 10.6223C6.26289 10.5836 5.89023 10.45 5.52109 10.3269C5.15547 10.2004 4.73008 10.0316 4.57539 9.95078C4.39023 9.85234 4.23555 9.73632 4.11133 9.60273C3.9707 9.44804 3.90742 9.3496 3.86523 9.19843C3.82656 9.05781 3.81602 8.92773 3.83008 8.78359C3.84063 8.65702 3.88984 8.48827 3.95312 8.36171C4.00938 8.2457 4.12539 8.09101 4.20977 8.01718C4.29414 7.93984 4.47344 7.82734 4.60703 7.76054C4.74414 7.69726 4.94102 7.62695 5.04648 7.60937C5.15547 7.59179 5.38047 7.58124 5.54922 7.59179Z" fill="black"/>
<path fill-rule="evenodd" clip-rule="evenodd" d="M10.2109 1.39023C10.3375 1.38671 10.6223 1.41132 10.8438 1.44296C11.0652 1.47109 11.3992 1.53437 11.582 1.58007C11.7648 1.62577 12.0602 1.7207 12.2324 1.79101C12.4047 1.86132 12.6824 1.99492 12.8477 2.08984C13.0129 2.18124 13.2906 2.36757 13.4629 2.50117C13.6352 2.63827 13.9129 2.88788 14.0746 3.06015C14.2328 3.23241 14.4613 3.51366 14.5773 3.68945C14.6934 3.86523 14.8586 4.14296 14.943 4.31523C15.0273 4.48398 15.1469 4.76874 15.2066 4.94804C15.2664 5.12382 15.3438 5.42265 15.3789 5.60546C15.4141 5.78827 15.4563 6.06952 15.502 6.51601L15.7305 6.59335C15.857 6.63554 16.0855 6.72695 16.2402 6.79726C16.3949 6.86757 16.6551 7.01523 16.8203 7.1207C16.9855 7.22968 17.2352 7.41601 17.3793 7.54257C17.5234 7.66562 17.7379 7.8871 17.8574 8.03124C17.977 8.17538 18.1492 8.40741 18.2336 8.54101C18.3215 8.6746 18.441 8.88202 18.5008 8.99804C18.557 9.11406 18.6555 9.35312 18.7188 9.52538C18.7785 9.69765 18.8664 10.0246 18.9156 10.2461C18.9824 10.559 19 10.7559 19 11.125C19 11.4906 18.9789 11.6945 18.9156 12.0039C18.8699 12.2254 18.7961 12.5101 18.7539 12.6367C18.7117 12.7633 18.6133 12.9988 18.5395 13.1641C18.4621 13.3293 18.2934 13.6211 18.1633 13.8144C18.0262 14.0219 17.7941 14.3031 17.5938 14.5C17.4109 14.6828 17.1086 14.9359 16.9258 15.0625C16.743 15.1855 16.4336 15.3613 16.2402 15.4527C16.0469 15.5441 15.7445 15.6601 15.5723 15.7094C15.4 15.7586 15.0906 15.8254 14.8867 15.8535C14.6828 15.8816 14.4719 15.9098 14.4121 15.9133C14.3172 15.9238 14.3066 15.9379 14.282 16.082C14.268 16.1699 14.2223 16.3422 14.1801 16.4687C14.1379 16.5953 14.043 16.8238 13.9656 16.9785C13.8883 17.1332 13.7582 17.3547 13.6738 17.4707C13.593 17.5867 13.4172 17.7906 13.2836 17.9242C13.15 18.0578 12.9461 18.2336 12.8301 18.3144C12.7141 18.3988 12.4926 18.5289 12.3379 18.6062C12.1832 18.6836 11.9547 18.7785 11.8281 18.8172C11.7016 18.8594 11.4941 18.9156 11.3605 18.9473C11.2199 18.9789 10.9563 19 10.7031 19C10.4711 19 10.2074 18.9824 10.1125 18.9613C10.0211 18.9402 9.81367 18.8805 9.64844 18.8348C9.4832 18.7855 9.22305 18.6836 9.06836 18.6062C8.91367 18.5289 8.69219 18.3988 8.57617 18.3144C8.46016 18.2336 8.25625 18.0578 8.12266 17.9242C7.98906 17.7906 7.81328 17.5867 7.73242 17.4707C7.64805 17.3547 7.51797 17.1332 7.44062 16.9785C7.36328 16.8238 7.26133 16.5707 7.21211 16.416C7.16289 16.2613 7.10313 15.9906 7.08203 15.8184C7.05742 15.6461 7.04336 15.3719 7.06445 14.9219L4.33984 14.9148C1.75937 14.9043 1.6082 14.9008 1.49219 14.8375C1.42539 14.8023 1.32344 14.732 1.2707 14.6793C1.21445 14.6301 1.13359 14.5246 1.01758 14.3066V6.25585L1.09492 6.11523C1.13359 6.03788 1.21445 5.93241 1.2707 5.8832C1.32344 5.83046 1.42539 5.76015 1.49219 5.72499C1.6082 5.66171 1.73477 5.6582 5.16602 5.64062L5.23281 5.3664C5.26797 5.21874 5.34883 4.9621 5.41211 4.79687C5.47539 4.63163 5.58086 4.38554 5.64766 4.25195C5.71797 4.11835 5.87266 3.85468 5.9957 3.67187C6.13281 3.46445 6.36836 3.19023 6.60742 2.95116C6.81836 2.73671 7.13828 2.46601 7.31055 2.34648C7.48281 2.23046 7.78516 2.05468 7.97852 1.95624C8.17188 1.86132 8.45664 1.74179 8.61133 1.69257C8.76602 1.64335 8.96289 1.58359 9.05078 1.55898C9.13867 1.53788 9.38125 1.48866 9.5957 1.45702C9.81016 1.42187 10.0844 1.39374 10.2109 1.39023ZM8.92773 2.19882C8.73438 2.25859 8.45664 2.36406 8.3125 2.43085C8.16836 2.49765 7.89062 2.65585 7.69727 2.78593C7.48984 2.92304 7.20859 3.15859 7.01172 3.35546C6.81484 3.55234 6.5793 3.83359 6.44219 4.04101C6.31211 4.23437 6.15039 4.5121 6.08359 4.65624C6.0168 4.80038 5.92539 5.03945 5.87617 5.18359C5.82695 5.32773 5.78125 5.48945 5.76719 5.5457L5.74609 5.64062C9.54297 5.6582 9.67305 5.66171 9.78906 5.72499C9.85586 5.76015 9.95781 5.83046 10.0105 5.8832C10.0668 5.93241 10.1477 6.03788 10.1863 6.11523C10.2602 6.24882 10.2637 6.31562 10.2812 7.3246L10.2988 8.38984C10.4887 8.12616 10.6398 7.94687 10.7559 7.82382C10.8719 7.70077 11.0934 7.50038 11.248 7.38437C11.4027 7.26484 11.5926 7.12773 11.6699 7.07851C11.7473 7.02577 11.9371 6.92382 12.0918 6.84648C12.2465 6.76562 12.5172 6.65663 12.6895 6.59687C12.8617 6.5371 13.15 6.46327 13.3223 6.4246C13.5613 6.3789 13.7969 6.36132 14.282 6.36132H14.9254C14.8902 6.03437 14.8586 5.82695 14.8305 5.69335C14.8023 5.55976 14.7391 5.3207 14.6863 5.16601C14.6371 5.01132 14.5211 4.73359 14.4297 4.55077C14.3348 4.36796 14.159 4.07616 14.0395 3.9039C13.9164 3.73163 13.6809 3.46445 13.5156 3.30624C13.3504 3.14804 13.0973 2.93359 12.9531 2.83163C12.809 2.72968 12.5523 2.57499 12.3801 2.49062C12.2113 2.40624 11.9371 2.29023 11.7684 2.23398C11.5961 2.17773 11.3324 2.1039 11.1777 2.07226C11.023 2.04062 10.675 2.00898 10.4043 1.99843C10.0809 1.9914 9.80313 2.00546 9.5957 2.0371C9.42344 2.06523 9.12109 2.13906 8.92773 2.19882ZM1.56953 6.40702L1.5625 14.1484L1.77344 14.3594H9.51484L9.71875 14.1484V6.41406L9.50781 6.20312H1.76641L1.56953 6.40702ZM13.4137 6.99062C13.2695 7.01874 13.0234 7.08554 12.8688 7.13476C12.7141 7.18749 12.475 7.28593 12.3414 7.35273C12.2043 7.42304 11.9828 7.55312 11.8492 7.64452C11.7121 7.73593 11.4766 7.92577 11.3254 8.06992C11.1742 8.21054 10.9598 8.44609 10.8508 8.59374C10.7418 8.73788 10.5695 9.01913 10.4676 9.21601L10.2848 9.57812V11.7051C11.1426 11.7086 11.3184 11.7262 11.5504 11.7859C11.7156 11.8281 11.9512 11.9019 12.0777 11.9512C12.2043 12.0039 12.4082 12.1059 12.5348 12.1762C12.6613 12.25 12.8406 12.373 12.9391 12.4469C13.034 12.5242 13.2063 12.6789 13.3187 12.7949C13.4348 12.9109 13.593 13.1008 13.6773 13.2168C13.7617 13.3328 13.8848 13.5367 13.9551 13.6738C14.0219 13.8074 14.1203 14.0359 14.1695 14.1836C14.2188 14.3277 14.282 14.5879 14.3102 14.7637C14.3383 14.9359 14.3629 15.1434 14.3629 15.2207V15.3613C14.7039 15.3156 14.9289 15.2805 15.0836 15.2488C15.2383 15.2172 15.4738 15.1539 15.6109 15.1047C15.7445 15.059 15.9977 14.9465 16.1734 14.8551C16.3457 14.7672 16.6094 14.6055 16.7535 14.4965C16.8977 14.3875 17.1367 14.173 17.2809 14.0184C17.425 13.8637 17.6184 13.6281 17.7063 13.4945C17.7941 13.3609 17.9277 13.1324 18.0016 12.9883C18.0719 12.8406 18.1773 12.5875 18.2301 12.4258C18.2863 12.2605 18.3531 11.9582 18.3848 11.7578C18.4164 11.5539 18.441 11.2691 18.441 11.125C18.441 10.9773 18.4164 10.7101 18.3883 10.5273C18.3602 10.341 18.3039 10.0738 18.2652 9.92968C18.223 9.78202 18.107 9.49023 18.0016 9.27929C17.8961 9.06484 17.7098 8.75546 17.5867 8.59374C17.4637 8.42851 17.2422 8.18593 17.1016 8.05234C16.9574 7.91874 16.7148 7.72538 16.5602 7.62343C16.4055 7.52148 16.1418 7.37031 15.9695 7.29296C15.8008 7.21562 15.5477 7.11718 15.407 7.07851C15.2699 7.03984 15.0027 6.98359 14.8199 6.95546C14.6371 6.92734 14.3594 6.90624 14.2047 6.90976C14.05 6.91327 13.8672 6.92031 13.8004 6.92734C13.7336 6.93437 13.5578 6.96249 13.4137 6.99062ZM10.2707 12.2887C10.2672 14.2117 10.2602 14.3172 10.2004 14.4297C10.1652 14.4965 10.0949 14.5949 10.0422 14.6512C9.99297 14.7074 9.8875 14.7848 9.81016 14.8269C9.67656 14.8973 9.6168 14.9043 8.66758 14.9113L7.66563 14.9219C7.62344 15.0976 7.61289 15.2453 7.61289 15.3613C7.61289 15.4773 7.6375 15.7094 7.66563 15.8781C7.69375 16.0469 7.76055 16.3 7.8168 16.4406C7.86953 16.5812 7.99258 16.8238 8.0875 16.9785C8.18242 17.1332 8.3793 17.3758 8.52695 17.5234C8.67109 17.6676 8.91719 17.868 9.07188 17.9629C9.22656 18.0578 9.46914 18.1809 9.60625 18.2336C9.74687 18.2863 10 18.3531 10.1687 18.3848C10.341 18.4129 10.5801 18.4375 10.7066 18.4375C10.8332 18.4375 11.0723 18.4129 11.241 18.3848C11.4133 18.3531 11.6664 18.2863 11.8035 18.2336C11.9441 18.1809 12.1867 18.0578 12.3414 17.9629C12.4961 17.868 12.7422 17.6676 12.8863 17.5234C13.034 17.3758 13.2309 17.1332 13.3258 16.9785C13.4207 16.8238 13.5437 16.5812 13.5965 16.4406C13.6492 16.3 13.7195 16.0469 13.7477 15.8781C13.7758 15.7094 13.8004 15.4668 13.8004 15.3437C13.8004 15.2172 13.7758 14.9746 13.7477 14.8059C13.7195 14.6371 13.6492 14.384 13.5965 14.2434C13.5437 14.1027 13.4207 13.8637 13.3258 13.709C13.2309 13.5543 13.041 13.3117 12.9039 13.1746C12.7703 13.0375 12.5312 12.8441 12.3766 12.7422C12.2219 12.6437 11.9723 12.5137 11.8211 12.4574C11.6734 12.4012 11.4133 12.3309 11.241 12.2992C11.0723 12.2711 10.8227 12.25 10.6891 12.2535C10.552 12.257 10.4043 12.2641 10.3551 12.2746L10.2707 12.2887ZM5.54922 7.59179C5.71797 7.59882 6.00977 7.64101 6.19961 7.67968C6.38945 7.72187 6.68828 7.79921 6.86758 7.85546C7.06445 7.91874 7.22266 7.98906 7.26484 8.03827C7.30352 8.08046 7.33516 8.16484 7.33164 8.22109C7.33164 8.28085 7.29648 8.36171 7.2543 8.40741C7.20508 8.45663 7.13477 8.48827 7.06797 8.48827C7.01172 8.48827 6.84648 8.44609 6.69883 8.39687C6.55469 8.34765 6.27695 8.27382 6.08359 8.23163C5.87969 8.18593 5.6125 8.15429 5.4332 8.15429C5.2293 8.15429 5.07461 8.17538 4.94102 8.22109C4.825 8.26327 4.69141 8.34413 4.60352 8.43202C4.52266 8.51288 4.43828 8.63593 4.41367 8.71327C4.39258 8.79062 4.38203 8.91366 4.39258 8.98749C4.40664 9.07187 4.45938 9.16327 4.54727 9.25116C4.62109 9.32499 4.77227 9.42695 4.88828 9.4832C5.0043 9.53945 5.40156 9.6871 5.76719 9.81015C6.13633 9.93671 6.55469 10.0984 6.69883 10.1758C6.84648 10.2496 7.03984 10.3867 7.13125 10.4781C7.22617 10.573 7.33516 10.7207 7.37734 10.8051C7.44062 10.9316 7.45469 11.0266 7.45469 11.2621C7.45469 11.5082 7.43711 11.5961 7.36328 11.7543C7.31406 11.8633 7.22266 12.0109 7.15586 12.0883C7.08906 12.1621 6.93789 12.2851 6.82188 12.3625C6.70586 12.4363 6.50898 12.5277 6.38242 12.5664C6.25938 12.6051 6.02031 12.6508 5.85508 12.6684C5.66523 12.6894 5.44023 12.6894 5.22227 12.6684C5.03945 12.6473 4.74062 12.6016 4.5543 12.5629C4.37148 12.5242 4.16406 12.475 4.09023 12.4574C4.01641 12.4398 3.925 12.3906 3.88633 12.3519C3.84414 12.3098 3.81602 12.2359 3.81602 12.1586C3.81836 12.0766 3.84531 12.0109 3.89688 11.9617C3.96367 11.8984 4.00234 11.8879 4.13242 11.9055C4.22031 11.916 4.44883 11.9582 4.64219 12.0004C4.83555 12.0426 5.13789 12.0883 5.31016 12.1023C5.48594 12.1199 5.73203 12.1199 5.85508 12.1023C5.98164 12.0883 6.17852 12.0426 6.29453 11.9969C6.41055 11.9547 6.56875 11.8598 6.64609 11.793C6.71992 11.7226 6.81133 11.6031 6.84648 11.5258C6.88164 11.4484 6.90977 11.3359 6.90977 11.2726C6.90977 11.2094 6.88516 11.1004 6.85 11.0266C6.81484 10.9562 6.72344 10.8508 6.64609 10.7945C6.56875 10.7383 6.43516 10.6609 6.34727 10.6223C6.26289 10.5836 5.89023 10.45 5.52109 10.3269C5.15547 10.2004 4.73008 10.0316 4.57539 9.95078C4.39023 9.85234 4.23555 9.73632 4.11133 9.60273C3.9707 9.44804 3.90742 9.3496 3.86523 9.19843C3.82656 9.05781 3.81602 8.92773 3.83008 8.78359C3.84063 8.65702 3.88984 8.48827 3.95312 8.36171C4.00938 8.2457 4.12539 8.09101 4.20977 8.01718C4.29414 7.93984 4.47344 7.82734 4.60703 7.76054C4.74414 7.69726 4.94102 7.62695 5.04648 7.60937C5.15547 7.59179 5.38047 7.58124 5.54922 7.59179Z" stroke="black" stroke-width="0.6" mask="url(#path-1-outside-1_14_743)"/>
</g>
</g>
</svg>
