<svg width="81" height="30" viewBox="0 0 81 30" fill="none" xmlns="http://www.w3.org/2000/svg">
<g id="Group 12">
<rect id="Rectangle 15" x="1.5" y="0.5" width="79" height="29" rx="1.5" fill="#F2F4F5" stroke="#D9D9D9"/>
<path id="Rectangle 16" d="M41.5 1V0.5H41H3C1.61929 0.5 0.5 1.61929 0.5 3V27C0.5 28.3807 1.61929 29.5 3 29.5H41H41.5V29V1Z" fill="white" stroke="#D9D9D9"/>
<g id="Group">
<path id="Vector" d="M21 22C19.1435 22 17.363 21.2625 16.0503 19.9497C14.7375 18.637 14 16.8565 14 15C14 13.1435 14.7375 11.363 16.0503 10.0503C17.363 8.7375 19.1435 8 21 8C22.8565 8 24.637 8.7375 25.9497 10.0503C27.2625 11.363 28 13.1435 28 15C28 16.8565 27.2625 18.637 25.9497 19.9497C24.637 21.2625 22.8565 22 21 22ZM21 23C23.1217 23 25.1566 22.1571 26.6569 20.6569C28.1571 19.1566 29 17.1217 29 15C29 12.8783 28.1571 10.8434 26.6569 9.34315C25.1566 7.84285 23.1217 7 21 7C18.8783 7 16.8434 7.84285 15.3431 9.34315C13.8429 10.8434 13 12.8783 13 15C13 17.1217 13.8429 19.1566 15.3431 20.6569C16.8434 22.1571 18.8783 23 21 23Z" fill="#221F1F"/>
<path id="Vector_2" d="M21 20C19.6739 20 18.4021 19.4732 17.4645 18.5355C16.5268 17.5979 16 16.3261 16 15C16 13.6739 16.5268 12.4021 17.4645 11.4645C18.4021 10.5268 19.6739 10 21 10C22.3261 10 23.5979 10.5268 24.5355 11.4645C25.4732 12.4021 26 13.6739 26 15C26 16.3261 25.4732 17.5979 24.5355 18.5355C23.5979 19.4732 22.3261 20 21 20ZM21 21C21.7879 21 22.5681 20.8448 23.2961 20.5433C24.0241 20.2417 24.6855 19.7998 25.2426 19.2426C25.7998 18.6855 26.2417 18.0241 26.5433 17.2961C26.8448 16.5681 27 15.7879 27 15C27 14.2121 26.8448 13.4319 26.5433 12.7039C26.2417 11.9759 25.7998 11.3145 25.2426 10.7574C24.6855 10.2002 24.0241 9.75825 23.2961 9.45672C22.5681 9.15519 21.7879 9 21 9C19.4087 9 17.8826 9.63214 16.7574 10.7574C15.6321 11.8826 15 13.4087 15 15C15 16.5913 15.6321 18.1174 16.7574 19.2426C17.8826 20.3679 19.4087 21 21 21Z" fill="#221F1F"/>
<path id="Vector_3" d="M21 18C20.2044 18 19.4413 17.6839 18.8787 17.1213C18.3161 16.5587 18 15.7956 18 15C18 14.2044 18.3161 13.4413 18.8787 12.8787C19.4413 12.3161 20.2044 12 21 12C21.7956 12 22.5587 12.3161 23.1213 12.8787C23.6839 13.4413 24 14.2044 24 15C24 15.7956 23.6839 16.5587 23.1213 17.1213C22.5587 17.6839 21.7956 18 21 18ZM21 19C22.0609 19 23.0783 18.5786 23.8284 17.8284C24.5786 17.0783 25 16.0609 25 15C25 13.9391 24.5786 12.9217 23.8284 12.1716C23.0783 11.4214 22.0609 11 21 11C19.9391 11 18.9217 11.4214 18.1716 12.1716C17.4214 12.9217 17 13.9391 17 15C17 16.0609 17.4214 17.0783 18.1716 17.8284C18.9217 18.5786 19.9391 19 21 19Z" fill="#221F1F"/>
<path id="Vector_4" d="M22.5 15C22.5 15.3978 22.342 15.7794 22.0607 16.0607C21.7794 16.342 21.3978 16.5 21 16.5C20.6022 16.5 20.2206 16.342 19.9393 16.0607C19.658 15.7794 19.5 15.3978 19.5 15C19.5 14.6022 19.658 14.2206 19.9393 13.9393C20.2206 13.658 20.6022 13.5 21 13.5C21.3978 13.5 21.7794 13.658 22.0607 13.9393C22.342 14.2206 22.5 14.6022 22.5 15Z" fill="#221F1F"/>
</g>
<path id="Vector_5" d="M57.3846 20.9231H56.3077V15.5385H54.1538V20.9231H53.0769V14.4615H57.3846V20.9231ZM62.7692 20.9231H61.6923V12.3077H59.5385V20.9231H58.4615V11.2308H62.7692V20.9231ZM68.1538 20.9231H67.0769V9.07692H64.9231V20.9231H63.8462V8H68.1538V20.9231ZM52 20.9231H69.2308V22H52V20.9231Z" fill="#221F1F" fill-opacity="0.2"/>
</g>
</svg>
