<svg width="150" height="150" viewBox="0 0 150 150" fill="none" xmlns="http://www.w3.org/2000/svg">
<path d="M144.62 47.1057C148.458 56.6851 150.278 66.9536 149.966 77.2686C149.654 87.5837 147.216 97.7233 142.806 107.053L75 75L144.62 47.1057Z" fill="#87CEFA"/>
<path d="M142.999 106.641C138.747 115.78 132.696 123.968 125.208 130.715C117.72 137.463 108.948 142.632 99.4177 145.914L75 75L142.999 106.641Z" fill="#87CEEB"/>
<path d="M100.832 145.411C90.3536 149.255 79.1497 150.712 68.0369 149.676L75 75L100.832 145.411Z" fill="#1E90FF"/>
<path d="M68.3749 149.707C56.2692 148.633 44.6057 144.634 34.3884 138.053L75 75L68.3749 149.707Z" fill="#0000CD"/>
<path d="M34.4483 138.092C19.4269 128.437 8.3432 113.739 3.19044 96.6423L75 75L34.4483 138.092Z" fill="white"/>
<path d="M3.16167 96.5466C0.332137 87.1126 -0.61154 77.2137 0.384524 67.4151C1.38059 57.6165 4.29688 48.1099 8.96691 39.4384L75 75L3.16167 96.5466Z" fill="#7EE0FF"/>
<path d="M6.7693 43.8621C12.8272 30.5878 22.6255 19.3689 34.9638 11.5799L75 75L6.7693 43.8621Z" fill="#7520FF"/>
<path d="M34.91 11.6139C44.9652 5.25433 56.389 1.37812 68.238 0.305449C80.0871 -0.767222 92.0213 0.994427 103.055 5.4449L75 75L34.91 11.6139Z" fill="#1E90FF"/>
<path d="M103.158 5.48639C112.604 9.31269 121.171 15.024 128.336 22.2718C135.501 29.5195 141.114 38.1515 144.832 47.6408L75 75L103.158 5.48639Z" fill="#D4FFFC"/>
<path d="M64.8608 17.3636H65.1928V19.9862C65.1916 20.2229 65.149 20.4206 65.065 20.5792C64.9809 20.7366 64.8649 20.8544 64.717 20.9325C64.569 21.0107 64.3991 21.0497 64.2074 21.0497C64.0192 21.0497 63.8511 21.0148 63.7031 20.945C63.5552 20.8751 63.4386 20.7769 63.3533 20.6502C63.2693 20.5236 63.2273 20.375 63.2273 20.2045H63.554C63.554 20.3123 63.5824 20.4076 63.6392 20.4904C63.696 20.5721 63.7736 20.636 63.8718 20.6822C63.9712 20.7283 64.0831 20.7514 64.2074 20.7514C64.3364 20.7514 64.4495 20.7242 64.5465 20.6697C64.6448 20.6153 64.7217 20.5318 64.7773 20.4194C64.833 20.3058 64.8608 20.1613 64.8608 19.9862V17.3636ZM66.6048 21.0621C66.4402 21.0621 66.2899 21.0302 66.1538 20.9663C66.0176 20.9012 65.9093 20.8076 65.8288 20.6857C65.7483 20.5626 65.7081 20.4135 65.7081 20.2383C65.7081 20.1033 65.7335 19.9897 65.7844 19.8974C65.8353 19.805 65.9076 19.7293 66.0011 19.6701C66.0946 19.6109 66.2053 19.5642 66.3331 19.5298C66.4609 19.4955 66.6018 19.4689 66.7557 19.4499C66.9084 19.431 67.0374 19.4144 67.1428 19.4002C67.2493 19.386 67.3304 19.3635 67.386 19.3327C67.4416 19.302 67.4695 19.2522 67.4695 19.1836V19.1197C67.4695 18.9338 67.4138 18.7876 67.3026 18.6811C67.1925 18.5734 67.0339 18.5195 66.8267 18.5195C66.6302 18.5195 66.4698 18.5627 66.3455 18.6491C66.2224 18.7356 66.136 18.8374 66.0863 18.9545L65.7862 18.8462C65.8478 18.6971 65.933 18.5781 66.0419 18.4893C66.1508 18.3994 66.2727 18.3349 66.4077 18.2958C66.5426 18.2556 66.6793 18.2354 66.8178 18.2354C66.922 18.2354 67.0303 18.2491 67.1428 18.2763C67.2564 18.3035 67.3617 18.3509 67.4588 18.4183C67.5559 18.4846 67.6346 18.5775 67.695 18.6971C67.7553 18.8155 67.7855 18.9658 67.7855 19.1481V21H67.4695V20.5685H67.4499C67.4121 20.649 67.3558 20.7272 67.2812 20.8029C67.2067 20.8787 67.1132 20.9408 67.0007 20.9893C66.8883 21.0379 66.7563 21.0621 66.6048 21.0621ZM66.6474 20.7727C66.8155 20.7727 66.9611 20.7354 67.0842 20.6609C67.2073 20.5863 67.302 20.4875 67.3683 20.3643C67.4357 20.2401 67.4695 20.1033 67.4695 19.9542V19.56C67.4458 19.5825 67.4061 19.6026 67.3505 19.6204C67.296 19.6381 67.2327 19.6541 67.1605 19.6683C67.0895 19.6813 67.0185 19.6926 66.9474 19.7021C66.8764 19.7115 66.8125 19.7198 66.7557 19.7269C66.6018 19.7459 66.4704 19.7754 66.3615 19.8157C66.2526 19.8559 66.1692 19.9116 66.1112 19.9826C66.0531 20.0524 66.0241 20.1424 66.0241 20.2525C66.0241 20.4182 66.0833 20.5466 66.2017 20.6378C66.3201 20.7277 66.4686 20.7727 66.6474 20.7727ZM68.6923 19.2955V21H68.3762V18.2727H68.6834V18.7006H68.7118C68.7757 18.561 68.8752 18.4491 69.0101 18.3651C69.1462 18.2798 69.3143 18.2372 69.5144 18.2372C69.6979 18.2372 69.8588 18.2757 69.9973 18.3526C70.137 18.4284 70.2453 18.5402 70.3223 18.6882C70.4004 18.8362 70.4395 19.0179 70.4395 19.2333V21H70.1234V19.2528C70.1234 19.0291 70.0607 18.8522 69.9352 18.7219C69.8109 18.5917 69.644 18.5266 69.4345 18.5266C69.2913 18.5266 69.164 18.5574 69.0527 18.619C68.9415 18.6805 68.8533 18.7693 68.7882 18.8853C68.7243 19.0001 68.6923 19.1368 68.6923 19.2955ZM73.2895 21.0497C73.0575 21.0497 72.8509 21.0059 72.6698 20.9183C72.4887 20.8307 72.3467 20.7112 72.2437 20.5597C72.1407 20.407 72.0892 20.2347 72.0892 20.043C72.0892 19.8926 72.1206 19.7524 72.1833 19.6222C72.2461 19.4908 72.3325 19.3807 72.4426 19.2919C72.5526 19.2019 72.6763 19.1433 72.8137 19.1161V19.0966C72.6349 19.0445 72.4911 18.9421 72.3822 18.7894C72.2733 18.6355 72.2194 18.4609 72.2206 18.2656C72.2194 18.0845 72.2656 17.9223 72.3591 17.7791C72.4526 17.6359 72.5799 17.5228 72.7409 17.44C72.903 17.3559 73.0859 17.3139 73.2895 17.3139C73.4919 17.3139 73.6736 17.3559 73.8346 17.44C73.9956 17.5228 74.1228 17.6359 74.2164 17.7791C74.311 17.9223 74.359 18.0845 74.3602 18.2656C74.359 18.4598 74.3039 18.6344 74.195 18.7894C74.0861 18.9433 73.9429 19.0457 73.7654 19.0966V19.1161C73.9027 19.1422 74.0258 19.2002 74.1347 19.2901C74.2436 19.3801 74.33 19.4908 74.3939 19.6222C74.4578 19.7524 74.4898 19.8926 74.4898 20.043C74.4898 20.2347 74.4377 20.407 74.3335 20.5597C74.2306 20.7112 74.0885 20.8307 73.9074 20.9183C73.7275 21.0059 73.5215 21.0497 73.2895 21.0497ZM73.2895 20.7514C73.4623 20.7514 73.6138 20.7206 73.7441 20.6591C73.8754 20.5964 73.9778 20.5105 74.0512 20.4016C74.1258 20.2927 74.1631 20.1679 74.1631 20.027C74.1631 19.8814 74.1246 19.7518 74.0477 19.6381C73.9707 19.5233 73.8666 19.4328 73.7352 19.3665C73.6038 19.299 73.4552 19.2653 73.2895 19.2653C73.1238 19.2653 72.9746 19.299 72.8421 19.3665C72.7107 19.4328 72.6065 19.5233 72.5296 19.6381C72.4538 19.7518 72.4159 19.8814 72.4159 20.027C72.4159 20.1679 72.452 20.2927 72.5242 20.4016C72.5976 20.5105 72.7 20.5964 72.8314 20.6591C72.964 20.7206 73.1167 20.7514 73.2895 20.7514ZM73.2895 18.9812C73.4316 18.9812 73.5588 18.951 73.6713 18.8906C73.7837 18.8303 73.8725 18.748 73.9376 18.6438C74.0039 18.5385 74.0376 18.4189 74.0388 18.2852C74.0376 18.1526 74.0045 18.0354 73.9394 17.9336C73.8743 17.8306 73.7855 17.7507 73.673 17.6939C73.5618 17.6359 73.4339 17.6069 73.2895 17.6069C73.1451 17.6069 73.0161 17.6359 72.9024 17.6939C72.79 17.7507 72.7012 17.8306 72.6361 17.9336C72.5722 18.0354 72.5408 18.1526 72.542 18.2852C72.5408 18.4189 72.5728 18.5385 72.6379 18.6438C72.7042 18.748 72.7935 18.8303 72.906 18.8906C73.0196 18.951 73.1475 18.9812 73.2895 18.9812ZM76.1064 21.0497C75.8507 21.0497 75.6323 20.9763 75.4512 20.8295C75.2712 20.6816 75.1328 20.4679 75.0357 20.1886C74.9398 19.9092 74.8919 19.5736 74.8919 19.1818C74.8919 18.7912 74.9398 18.4568 75.0357 18.1786C75.1328 17.8993 75.2718 17.6856 75.4529 17.5376C75.6352 17.3885 75.853 17.3139 76.1064 17.3139C76.3597 17.3139 76.5769 17.3885 76.758 17.5376C76.9403 17.6856 77.0794 17.8993 77.1752 18.1786C77.2723 18.4568 77.3208 18.7912 77.3208 19.1818C77.3208 19.5736 77.2723 19.9092 77.1752 20.1886C77.0794 20.4679 76.9409 20.6816 76.7598 20.8295C76.5798 20.9763 76.362 21.0497 76.1064 21.0497ZM76.1064 20.7514C76.3869 20.7514 76.6059 20.6147 76.7633 20.3413C76.9208 20.0666 76.9995 19.6802 76.9995 19.1818C76.9995 18.8504 76.9634 18.5675 76.8912 18.3331C76.8201 18.0975 76.7177 17.9176 76.584 17.7933C76.4514 17.669 76.2922 17.6069 76.1064 17.6069C75.8282 17.6069 75.6098 17.7454 75.4512 18.0224C75.2926 18.2982 75.2132 18.6847 75.2132 19.1818C75.2132 19.5133 75.2488 19.7962 75.3198 20.0305C75.392 20.2649 75.4944 20.4437 75.627 20.5668C75.7607 20.6899 75.9205 20.7514 76.1064 20.7514Z" fill="black"/>
<path d="M109.049 30.877L111.62 28.3057L113.108 29.7935L112.897 30.0045L111.644 28.7514L110.676 29.7194L111.812 30.8557L111.601 31.0666L110.465 29.9304L109.283 31.1118L109.049 30.877ZM111.495 33.4037C111.315 33.2237 111.201 33.0262 111.153 32.8111C111.107 32.5951 111.122 32.3767 111.199 32.1557C111.277 31.9347 111.414 31.7267 111.609 31.5317C111.803 31.3375 112.011 31.2007 112.233 31.1212C112.457 31.0417 112.674 31.0224 112.886 31.0634C113.099 31.1044 113.289 31.2082 113.456 31.3748C113.561 31.4794 113.642 31.5995 113.701 31.7351C113.76 31.8699 113.789 32.0151 113.787 32.1708C113.787 32.3265 113.751 32.4863 113.677 32.6504C113.604 32.8136 113.487 32.976 113.325 33.1375L113.215 33.248L111.708 31.7414L111.905 31.5443L113.184 32.8224C113.307 32.6985 113.394 32.5621 113.442 32.4131C113.492 32.2641 113.502 32.1164 113.471 31.9699C113.441 31.8243 113.368 31.6937 113.253 31.5782C113.13 31.456 112.99 31.3811 112.832 31.3534C112.674 31.3258 112.515 31.3392 112.355 31.3936C112.196 31.4489 112.052 31.5397 111.924 31.6661L111.806 31.7841C111.653 31.9373 111.546 32.0975 111.484 32.2649C111.423 32.4323 111.411 32.5964 111.446 32.7571C111.481 32.9178 111.566 33.0651 111.7 33.199C111.791 33.2903 111.885 33.356 111.982 33.3962C112.08 33.4372 112.176 33.4573 112.271 33.4564C112.367 33.4556 112.456 33.4384 112.538 33.405L112.681 33.6862C112.571 33.7381 112.448 33.7649 112.312 33.7665C112.177 33.7691 112.039 33.7414 111.898 33.6837C111.758 33.6259 111.624 33.5326 111.495 33.4037ZM112.679 34.5079L115.251 31.9366L115.475 32.1613L114.465 33.172L114.485 33.1921C114.568 33.1594 114.663 33.136 114.771 33.1218C114.88 33.1084 114.993 33.1197 115.111 33.1557C115.231 33.1917 115.35 33.2687 115.468 33.3867C115.626 33.5449 115.723 33.7257 115.759 33.9291C115.796 34.1316 115.773 34.3413 115.69 34.5581C115.608 34.774 115.468 34.9812 115.27 35.1796C115.07 35.3788 114.862 35.5198 114.646 35.6027C114.43 35.6864 114.22 35.7102 114.017 35.6742C113.814 35.6391 113.634 35.5428 113.477 35.3855C113.36 35.2683 113.282 35.1494 113.246 35.0289C113.21 34.9092 113.198 34.795 113.212 34.6861C113.226 34.5765 113.249 34.4794 113.282 34.3949L113.254 34.3672L112.897 34.7251L112.679 34.5079ZM113.863 33.7659C113.708 33.9215 113.593 34.0827 113.518 34.2492C113.445 34.4158 113.418 34.5769 113.437 34.7326C113.457 34.8883 113.529 35.0285 113.654 35.1532C113.782 35.2813 113.925 35.3545 114.084 35.3729C114.244 35.3905 114.407 35.362 114.574 35.2875C114.741 35.213 114.899 35.1009 115.049 34.9511C115.197 34.8029 115.307 34.6464 115.38 34.4815C115.454 34.3174 115.481 34.1563 115.462 33.9981C115.443 33.8391 115.37 33.6951 115.241 33.5662C115.115 33.4407 114.975 33.3679 114.819 33.3478C114.665 33.3277 114.505 33.354 114.34 33.4269C114.176 33.4988 114.017 33.6118 113.863 33.7659ZM116.193 38.0916C116.029 37.9276 115.914 37.7505 115.848 37.5605C115.781 37.3705 115.766 37.1855 115.8 37.0056C115.835 36.8248 115.92 36.6666 116.056 36.531C116.162 36.4247 116.284 36.3477 116.42 36.3C116.557 36.2514 116.696 36.2347 116.837 36.2498C116.978 36.264 117.107 36.31 117.224 36.3879L117.237 36.3741C117.148 36.2108 117.119 36.0367 117.15 35.8518C117.181 35.666 117.267 35.5044 117.406 35.3671C117.533 35.2382 117.68 35.1562 117.848 35.1211C118.015 35.0859 118.185 35.0959 118.357 35.1512C118.531 35.2064 118.691 35.306 118.834 35.45C118.978 35.5931 119.076 35.7513 119.131 35.9246C119.186 36.097 119.196 36.2669 119.161 36.4343C119.127 36.6026 119.046 36.7511 118.919 36.88C118.78 37.0165 118.618 37.101 118.431 37.1336C118.246 37.1655 118.072 37.1366 117.91 37.047L117.897 37.0608C117.975 37.1763 118.021 37.3044 118.035 37.445C118.048 37.5856 118.031 37.725 117.983 37.8631C117.936 38.0004 117.86 38.1222 117.753 38.2285C117.618 38.3641 117.459 38.449 117.278 38.4833C117.098 38.5176 116.913 38.5017 116.723 38.4356C116.534 38.3703 116.357 38.2557 116.193 38.0916ZM116.404 37.8807C116.526 38.0029 116.655 38.0883 116.79 38.1368C116.928 38.1854 117.061 38.1971 117.19 38.172C117.319 38.1477 117.434 38.0857 117.534 37.9861C117.637 37.8832 117.701 37.7643 117.727 37.6296C117.754 37.494 117.744 37.3563 117.698 37.2165C117.653 37.0759 117.572 36.947 117.455 36.8298C117.337 36.7126 117.208 36.631 117.067 36.585C116.927 36.539 116.789 36.5293 116.654 36.5561C116.52 36.5829 116.401 36.6478 116.298 36.7507C116.199 36.8503 116.136 36.9642 116.11 37.0922C116.085 37.2211 116.097 37.3542 116.145 37.4915C116.195 37.6287 116.282 37.7585 116.404 37.8807ZM117.656 36.6289C117.756 36.7294 117.867 36.798 117.99 36.8348C118.112 36.8717 118.233 36.8763 118.352 36.8486C118.474 36.821 118.582 36.7603 118.678 36.6666C118.77 36.572 118.83 36.4657 118.856 36.3477C118.883 36.2288 118.876 36.1096 118.837 35.9899C118.799 35.8702 118.729 35.7593 118.627 35.6572C118.525 35.555 118.413 35.4843 118.292 35.445C118.172 35.4056 118.053 35.3994 117.934 35.4261C117.817 35.4529 117.712 35.5136 117.619 35.6082C117.524 35.7019 117.462 35.8091 117.433 35.9296C117.407 36.0501 117.412 36.1715 117.448 36.2937C117.486 36.4167 117.555 36.5285 117.656 36.6289ZM118.138 40.037C117.995 39.8938 117.896 39.7369 117.841 39.5661C117.787 39.3954 117.778 39.2255 117.813 39.0564C117.849 38.8882 117.931 38.7363 118.058 38.6007L118.285 38.8279C118.156 38.9719 118.098 39.1376 118.109 39.3251C118.122 39.5117 118.202 39.6787 118.349 39.826C118.464 39.9407 118.593 40.0156 118.737 40.0508C118.882 40.0851 119.027 40.0797 119.173 40.0345C119.32 39.9893 119.454 39.9064 119.575 39.7859C119.699 39.6595 119.783 39.5218 119.824 39.3728C119.867 39.223 119.87 39.0748 119.832 38.9283C119.795 38.7827 119.72 38.653 119.606 38.5391C119.521 38.4521 119.422 38.3818 119.31 38.3282C119.197 38.2746 119.091 38.2433 118.989 38.234L118.785 37.9691L120.188 36.8743L121.459 38.1449L121.248 38.3558L120.175 37.2824L119.212 38.0394L119.224 38.052C119.329 38.0612 119.437 38.0913 119.548 38.1424C119.66 38.1943 119.762 38.2659 119.853 38.3571C120.005 38.5086 120.104 38.681 120.152 38.8744C120.201 39.0685 120.196 39.2648 120.138 39.4632C120.082 39.6616 119.971 39.8436 119.806 40.0093C119.643 40.1717 119.462 40.2814 119.263 40.3383C119.066 40.3952 118.868 40.3986 118.671 40.3483C118.474 40.299 118.296 40.1952 118.138 40.037Z" fill="black"/>
<path d="M135.636 64.483V64.8665L132.469 66.1857V66.2177L135.636 67.5369V67.9205H132V67.608H134.935V67.5795L132 66.3526V66.0508L134.935 64.8239V64.7955H132V64.483H135.636ZM131.938 69.3333C131.938 69.1687 131.97 69.0184 132.034 68.8823C132.099 68.7462 132.192 68.6378 132.314 68.5574C132.437 68.4769 132.587 68.4366 132.762 68.4366C132.897 68.4366 133.01 68.4621 133.103 68.513C133.195 68.5639 133.271 68.6361 133.33 68.7296C133.389 68.8231 133.436 68.9338 133.47 69.0616C133.504 69.1895 133.531 69.3303 133.55 69.4842C133.569 69.6369 133.586 69.7659 133.6 69.8713C133.614 69.9778 133.636 70.0589 133.667 70.1145C133.698 70.1702 133.748 70.198 133.816 70.198H133.88C134.066 70.198 134.212 70.1423 134.319 70.0311C134.427 69.921 134.48 69.7624 134.48 69.5552C134.48 69.3587 134.437 69.1983 134.351 69.074C134.264 68.9509 134.163 68.8645 134.045 68.8148L134.154 68.5147C134.303 68.5763 134.422 68.6615 134.511 68.7704C134.601 68.8793 134.665 69.0012 134.704 69.1362C134.744 69.2711 134.765 69.4078 134.765 69.5463C134.765 69.6505 134.751 69.7588 134.724 69.8713C134.696 69.9849 134.649 70.0903 134.582 70.1873C134.515 70.2844 134.422 70.3631 134.303 70.4235C134.185 70.4838 134.034 70.514 133.852 70.514H132V70.198H132.431V70.1784C132.351 70.1406 132.273 70.0843 132.197 70.0098C132.121 69.9352 132.059 69.8417 132.011 69.7292C131.962 69.6168 131.938 69.4848 131.938 69.3333ZM132.227 69.3759C132.227 69.544 132.265 69.6896 132.339 69.8127C132.414 69.9358 132.513 70.0305 132.636 70.0968C132.76 70.1642 132.897 70.198 133.046 70.198H133.44C133.417 70.1743 133.397 70.1346 133.38 70.079C133.362 70.0246 133.346 69.9612 133.332 69.889C133.319 69.818 133.307 69.747 133.298 69.676C133.288 69.6049 133.28 69.541 133.273 69.4842C133.254 69.3303 133.225 69.1989 133.184 69.09C133.144 68.9811 133.088 68.8977 133.017 68.8397C132.948 68.7817 132.858 68.7527 132.748 68.7527C132.582 68.7527 132.453 68.8118 132.362 68.9302C132.272 69.0486 132.227 69.1971 132.227 69.3759ZM132 71.1048H134.727V71.4119H134.308V71.435C134.446 71.4895 134.556 71.5842 134.64 71.7191C134.725 71.8552 134.768 72.0091 134.768 72.1808C134.768 72.2068 134.768 72.2358 134.766 72.2678C134.765 72.2997 134.764 72.3263 134.763 72.3477H134.441C134.444 72.3335 134.447 72.3086 134.452 72.2731C134.457 72.2376 134.459 72.1991 134.459 72.1577C134.459 72.0156 134.429 71.889 134.369 71.7777C134.309 71.6676 134.227 71.5806 134.122 71.5167C134.016 71.4528 133.896 71.4208 133.761 71.4208H132V71.1048ZM135.686 74.8746C135.685 75.0261 135.654 75.1729 135.594 75.3149C135.535 75.4581 135.439 75.5872 135.306 75.702C135.175 75.8168 135 75.9079 134.781 75.9754C134.563 76.0429 134.295 76.0766 133.976 76.0766C133.679 76.0766 133.407 76.0506 133.159 75.9985C132.912 75.9464 132.698 75.8683 132.517 75.7641C132.337 75.6611 132.197 75.5309 132.098 75.3735C131.999 75.2172 131.95 75.0344 131.95 74.8248C131.95 74.6295 131.991 74.4561 132.073 74.3046C132.154 74.1543 132.268 74.0323 132.412 73.9388C132.558 73.8453 132.726 73.7873 132.916 73.7648V74.0915C132.722 74.1235 132.562 74.2016 132.437 74.3259C132.311 74.4514 132.249 74.6177 132.249 74.8248C132.249 75.122 132.387 75.3528 132.664 75.5173C132.941 75.6818 133.335 75.7641 133.847 75.7641V75.741C133.74 75.6842 133.647 75.6096 133.568 75.5173C133.489 75.4262 133.426 75.322 133.381 75.2048C133.338 75.0876 133.316 74.9639 133.316 74.8337C133.316 74.6313 133.367 74.4461 133.468 74.278C133.571 74.1099 133.712 73.9755 133.889 73.8749C134.068 73.7743 134.272 73.724 134.5 73.724C134.715 73.724 134.913 73.7713 135.093 73.866C135.274 73.9619 135.419 74.0957 135.526 74.2673C135.635 74.4401 135.688 74.6425 135.686 74.8746ZM135.388 74.8746C135.388 74.7171 135.348 74.5757 135.267 74.4502C135.188 74.3259 135.081 74.2271 134.946 74.1537C134.812 74.0815 134.663 74.0454 134.5 74.0454C134.335 74.0454 134.186 74.0815 134.051 74.1537C133.917 74.2271 133.81 74.3259 133.731 74.4502C133.653 74.5757 133.614 74.7171 133.614 74.8746C133.614 74.9953 133.638 75.1077 133.687 75.2119C133.737 75.3161 133.804 75.406 133.889 75.4818C133.974 75.5587 134.071 75.6167 134.179 75.6558C134.288 75.6961 134.402 75.712 134.521 75.7037C134.687 75.6895 134.835 75.6452 134.965 75.5706C135.097 75.4972 135.2 75.4001 135.274 75.2794C135.35 75.1598 135.388 75.0249 135.388 74.8746ZM131.95 77.7069C131.95 77.4513 132.024 77.2329 132.17 77.0518C132.318 76.8718 132.532 76.7333 132.811 76.6363C133.091 76.5404 133.426 76.4925 133.818 76.4925C134.209 76.4925 134.543 76.5404 134.821 76.6363C135.101 76.7333 135.314 76.8724 135.462 77.0535C135.612 77.2358 135.686 77.4536 135.686 77.7069C135.686 77.9603 135.612 78.1775 135.462 78.3586C135.314 78.5409 135.101 78.68 134.821 78.7758C134.543 78.8729 134.209 78.9214 133.818 78.9214C133.426 78.9214 133.091 78.8729 132.811 78.7758C132.532 78.68 132.318 78.5415 132.17 78.3604C132.024 78.1804 131.95 77.9626 131.95 77.7069ZM132.249 77.7069C132.249 77.9875 132.385 78.2065 132.659 78.3639C132.933 78.5213 133.32 78.6001 133.818 78.6001C134.15 78.6001 134.433 78.564 134.667 78.4917C134.902 78.4207 135.082 78.3183 135.207 78.1846C135.331 78.052 135.393 77.8928 135.393 77.7069C135.393 77.4288 135.255 77.2104 134.978 77.0518C134.702 76.8931 134.315 76.8138 133.818 76.8138C133.487 76.8138 133.204 76.8493 132.969 76.9204C132.735 76.9926 132.556 77.095 132.433 77.2275C132.31 77.3613 132.249 77.5211 132.249 77.7069Z" fill="black"/>
<path d="M122.968 112.052L123.215 111.806L124.85 115.313L124.599 115.564L121.093 113.928L121.339 113.682L124.411 115.142L124.429 115.125L122.968 112.052ZM123.777 113.215L122.501 114.491L122.29 114.28L123.566 113.004L123.777 113.215ZM120.152 113.422L122.804 116.074L122.587 116.291L122.219 115.923L122.192 115.95C122.223 116.034 122.245 116.13 122.259 116.237C122.273 116.345 122.263 116.459 122.227 116.578C122.191 116.697 122.114 116.816 121.996 116.934C121.837 117.093 121.657 117.19 121.454 117.225C121.251 117.262 121.042 117.239 120.826 117.155C120.61 117.073 120.403 116.933 120.205 116.734C120.006 116.535 119.865 116.327 119.782 116.11C119.698 115.895 119.674 115.685 119.71 115.481C119.745 115.279 119.842 115.099 119.999 114.942C120.115 114.825 120.234 114.749 120.354 114.712C120.474 114.676 120.589 114.664 120.698 114.677C120.808 114.691 120.905 114.714 120.989 114.747L121.01 114.727L119.929 113.646L120.152 113.422ZM121.617 115.33C121.462 115.174 121.3 115.059 121.134 114.984C120.967 114.911 120.806 114.884 120.651 114.903C120.495 114.923 120.355 114.995 120.23 115.12C120.102 115.248 120.029 115.391 120.011 115.549C119.994 115.709 120.022 115.872 120.097 116.039C120.17 116.206 120.282 116.365 120.432 116.515C120.58 116.663 120.737 116.773 120.902 116.846C121.066 116.92 121.227 116.947 121.385 116.928C121.544 116.909 121.688 116.836 121.817 116.707C121.942 116.581 122.015 116.441 122.035 116.285C122.056 116.13 122.03 115.97 121.958 115.805C121.885 115.642 121.771 115.484 121.617 115.33ZM118.932 116.089L120.861 118.017L120.643 118.234L120.347 117.938L120.331 117.954C120.389 118.09 120.401 118.235 120.365 118.39C120.329 118.547 120.25 118.686 120.129 118.807C120.11 118.825 120.089 118.845 120.066 118.867C120.042 118.889 120.023 118.907 120.007 118.921L119.78 118.694C119.791 118.686 119.811 118.67 119.84 118.649C119.868 118.627 119.897 118.601 119.926 118.572C120.027 118.472 120.095 118.361 120.131 118.239C120.167 118.12 120.17 118 120.141 117.88C120.112 117.761 120.049 117.653 119.954 117.558L118.709 116.312L118.932 116.089ZM116.21 118.741C116.374 118.577 116.551 118.461 116.741 118.395C116.931 118.329 117.116 118.313 117.296 118.348C117.477 118.383 117.635 118.468 117.771 118.604C117.877 118.71 117.954 118.831 118.002 118.968C118.05 119.105 118.067 119.244 118.052 119.385C118.038 119.526 117.992 119.655 117.914 119.771L117.927 119.785C118.091 119.696 118.265 119.666 118.45 119.697C118.636 119.729 118.797 119.814 118.934 119.953C119.063 120.081 119.145 120.228 119.18 120.395C119.216 120.563 119.206 120.733 119.15 120.905C119.095 121.079 118.996 121.238 118.852 121.382C118.708 121.525 118.55 121.624 118.377 121.678C118.205 121.734 118.035 121.744 117.867 121.709C117.699 121.674 117.55 121.594 117.422 121.466C117.285 121.328 117.201 121.166 117.168 120.979C117.136 120.793 117.165 120.62 117.255 120.458L117.241 120.444C117.125 120.523 116.997 120.569 116.857 120.582C116.716 120.596 116.577 120.579 116.438 120.531C116.301 120.484 116.179 120.407 116.073 120.301C115.937 120.166 115.853 120.007 115.818 119.825C115.784 119.645 115.8 119.46 115.866 119.27C115.931 119.081 116.046 118.905 116.21 118.741ZM116.421 118.952C116.299 119.074 116.213 119.203 116.165 119.338C116.116 119.475 116.104 119.609 116.13 119.737C116.154 119.867 116.216 119.982 116.315 120.081C116.418 120.184 116.537 120.249 116.672 120.275C116.808 120.302 116.945 120.292 117.085 120.246C117.226 120.201 117.355 120.12 117.472 120.002C117.589 119.885 117.671 119.756 117.717 119.614C117.763 119.475 117.772 119.337 117.745 119.201C117.719 119.067 117.654 118.949 117.551 118.846C117.451 118.746 117.337 118.684 117.209 118.658C117.08 118.633 116.947 118.644 116.81 118.693C116.673 118.743 116.543 118.829 116.421 118.952ZM117.673 120.203C117.572 120.304 117.504 120.415 117.467 120.537C117.43 120.659 117.425 120.78 117.453 120.9C117.481 121.021 117.541 121.13 117.635 121.225C117.73 121.318 117.836 121.378 117.954 121.404C118.073 121.43 118.192 121.424 118.312 121.385C118.431 121.347 118.542 121.277 118.644 121.175C118.746 121.073 118.817 120.961 118.857 120.84C118.896 120.72 118.902 120.601 118.875 120.482C118.849 120.365 118.788 120.26 118.693 120.167C118.6 120.071 118.492 120.009 118.372 119.981C118.251 119.954 118.13 119.959 118.008 119.996C117.885 120.034 117.773 120.103 117.673 120.203ZM114.265 120.686C114.408 120.543 114.565 120.444 114.735 120.388C114.906 120.335 115.076 120.326 115.245 120.361C115.413 120.397 115.565 120.478 115.701 120.606L115.474 120.833C115.33 120.704 115.164 120.645 114.976 120.657C114.79 120.67 114.623 120.75 114.476 120.897C114.361 121.012 114.286 121.141 114.251 121.285C114.216 121.43 114.222 121.575 114.267 121.72C114.312 121.868 114.395 122.002 114.516 122.122C114.642 122.247 114.78 122.33 114.929 122.372C115.079 122.415 115.227 122.417 115.373 122.38C115.519 122.343 115.649 122.267 115.762 122.154C115.849 122.068 115.92 121.969 115.973 121.857C116.027 121.745 116.058 121.638 116.067 121.537L116.332 121.333L117.427 122.736L116.157 124.007L115.946 123.796L117.019 122.722L116.262 121.759L116.25 121.772C116.24 121.877 116.21 121.985 116.159 122.096C116.107 122.208 116.036 122.31 115.944 122.401C115.793 122.552 115.621 122.652 115.427 122.7C115.233 122.748 115.037 122.744 114.838 122.686C114.64 122.63 114.458 122.519 114.292 122.353C114.13 122.191 114.02 122.01 113.963 121.811C113.906 121.613 113.903 121.416 113.953 121.218C114.003 121.022 114.106 120.844 114.265 120.686Z" fill="black"/>
<path d="M92.1367 134.626L91.763 134.712L89.765 131.923L89.7338 131.93L89.161 135.313L88.7873 135.399L87.9693 131.856L88.2738 131.786L88.934 134.646L88.9617 134.639L89.4969 131.504L89.791 131.436L91.6467 134.019L91.6744 134.013L91.0142 131.153L91.3187 131.083L92.1367 134.626ZM86.5787 132.114C86.739 132.077 86.8927 132.074 87.0397 132.106C87.187 132.138 87.3135 132.205 87.4194 132.306C87.5255 132.408 87.5983 132.544 87.6377 132.715C87.668 132.846 87.6688 132.963 87.64 133.064C87.6112 133.165 87.5578 133.255 87.48 133.334C87.4022 133.413 87.3049 133.483 87.1881 133.545C87.0712 133.608 86.94 133.665 86.7943 133.718C86.6498 133.771 86.5278 133.816 86.4283 133.854C86.3277 133.892 86.2538 133.932 86.2065 133.974C86.1592 134.017 86.1433 134.072 86.1587 134.138L86.1731 134.201C86.2149 134.382 86.302 134.512 86.4344 134.591C86.5659 134.671 86.7325 134.688 86.9344 134.641C87.1259 134.597 87.2724 134.519 87.3741 134.406C87.4746 134.294 87.5359 134.176 87.558 134.05L87.8747 134.089C87.8483 134.248 87.792 134.383 87.7059 134.494C87.62 134.606 87.5157 134.696 87.393 134.765C87.2706 134.834 87.1419 134.885 87.0069 134.916C86.9054 134.939 86.7969 134.95 86.6812 134.949C86.5643 134.948 86.451 134.926 86.3413 134.882C86.2318 134.839 86.1342 134.766 86.0484 134.663C85.963 134.561 85.8998 134.422 85.8588 134.244L85.4422 132.44L85.7501 132.369L85.8472 132.789L85.8662 132.785C85.885 132.698 85.9222 132.609 85.9778 132.518C86.0335 132.428 86.1106 132.346 86.2093 132.274C86.3079 132.201 86.4311 132.148 86.5787 132.114ZM86.6023 132.405C86.4385 132.443 86.305 132.512 86.2018 132.612C86.0987 132.713 86.0286 132.83 85.9917 132.965C85.9539 133.101 85.9518 133.242 85.9854 133.388L86.0741 133.772C86.0921 133.744 86.1262 133.716 86.1764 133.686C86.2254 133.657 86.2836 133.627 86.3507 133.597C86.417 133.568 86.4837 133.541 86.5507 133.516C86.6178 133.491 86.6782 133.468 86.732 133.449C86.8777 133.395 86.999 133.337 87.0961 133.273C87.1931 133.21 87.2619 133.137 87.3025 133.054C87.3433 132.973 87.3513 132.879 87.3265 132.772C87.2893 132.61 87.2027 132.499 87.0669 132.436C86.9313 132.375 86.7764 132.365 86.6023 132.405ZM84.5171 131.604C84.5783 131.59 84.6367 131.582 84.6924 131.581C84.7481 131.581 84.7932 131.584 84.8275 131.59L84.8072 131.881C84.6947 131.873 84.5987 131.883 84.5189 131.911C84.4389 131.938 84.3747 131.992 84.3265 132.072C84.278 132.151 84.2443 132.264 84.2256 132.409L84.1911 132.701L85.788 135.159L85.4541 135.236L84.1456 133.167L84.1214 133.173L83.8521 135.606L83.5182 135.683L83.9322 132.346C83.9499 132.207 83.9835 132.086 84.033 131.985C84.0823 131.883 84.1476 131.8 84.2292 131.738C84.3093 131.674 84.4053 131.629 84.5171 131.604ZM80.3838 133.557C80.581 133.511 80.7667 133.51 80.9408 133.554C81.1139 133.599 81.2629 133.681 81.3877 133.8C81.5113 133.92 81.5969 134.07 81.6444 134.249L81.3313 134.322C81.2775 134.136 81.168 133.999 81.0028 133.909C80.8379 133.821 80.6539 133.8 80.4509 133.847C80.2929 133.884 80.1608 133.954 80.0547 134.057C79.9489 134.162 79.8765 134.288 79.8377 134.435C79.798 134.584 79.7973 134.742 79.8356 134.908C79.8767 135.08 79.9493 135.224 80.0535 135.338C80.158 135.454 80.2823 135.535 80.4264 135.58C80.5695 135.626 80.7194 135.631 80.8763 135.595C80.9953 135.569 81.1073 135.522 81.2122 135.455C81.317 135.389 81.4002 135.315 81.4617 135.234L81.7948 135.201L81.9794 136.971L80.2286 137.375L80.1615 137.085L81.6407 136.743L81.5089 135.525L81.4916 135.529C81.4284 135.613 81.3456 135.689 81.2433 135.756C81.1399 135.824 81.0253 135.872 80.8996 135.901C80.6908 135.949 80.4918 135.942 80.3026 135.88C80.1122 135.819 79.9481 135.711 79.8105 135.557C79.672 135.404 79.5764 135.213 79.5237 134.985C79.472 134.761 79.4748 134.55 79.5321 134.351C79.5885 134.153 79.6904 133.984 79.8376 133.843C79.9838 133.702 80.1658 133.607 80.3838 133.557ZM77.6612 134.185C77.9103 134.128 78.1396 134.15 78.3491 134.252C78.5577 134.356 78.7407 134.533 78.8981 134.783C79.0544 135.034 79.1766 135.35 79.2647 135.732C79.3526 136.113 79.3811 136.449 79.3503 136.742C79.3185 137.036 79.2311 137.275 79.0879 137.46C78.9438 137.646 78.7484 137.768 78.5016 137.825C78.2548 137.882 78.0263 137.858 77.8163 137.754C77.6054 137.651 77.4218 137.474 77.2656 137.223C77.1084 136.974 76.9859 136.659 76.898 136.278C76.8099 135.897 76.7817 135.559 76.8134 135.265C76.844 134.971 76.9309 134.731 77.0741 134.547C77.2164 134.363 77.4121 134.243 77.6612 134.185ZM77.7283 134.476C77.455 134.539 77.2723 134.721 77.1804 135.023C77.0888 135.326 77.0991 135.72 77.2112 136.206C77.2857 136.529 77.3845 136.796 77.5076 137.009C77.6298 137.222 77.7701 137.374 77.9283 137.465C78.0855 137.557 78.2546 137.581 78.4357 137.54C78.7067 137.477 78.8884 137.293 78.9806 136.987C79.0731 136.683 79.0634 136.289 78.9516 135.804C78.877 135.481 78.7788 135.214 78.6569 135.001C78.5338 134.789 78.3938 134.638 78.237 134.548C78.0789 134.458 77.9094 134.434 77.7283 134.476Z" fill="black"/>
<path d="M60.2061 137.44L59.9129 137.284L61.1441 134.969C61.2563 134.76 61.3867 134.606 61.5354 134.505C61.6835 134.406 61.8412 134.356 62.0086 134.357C62.1759 134.357 62.3442 134.402 62.5135 134.492C62.6797 134.581 62.8117 134.691 62.9096 134.822C63.0074 134.953 63.0643 135.094 63.08 135.246C63.0948 135.397 63.0622 135.548 62.9821 135.699L62.6937 135.545C62.7442 135.45 62.7639 135.353 62.7526 135.253C62.7408 135.154 62.7024 135.061 62.6373 134.975C62.5712 134.887 62.4832 134.814 62.3735 134.756C62.2596 134.695 62.147 134.666 62.0357 134.669C61.9234 134.671 61.8163 134.708 61.7144 134.781C61.6119 134.856 61.5195 134.97 61.4373 135.125L60.2061 137.44ZM59.0266 133.875L58.2355 135.363L57.9564 135.215L59.2368 132.807L59.5159 132.955L59.3033 133.355L59.3253 133.366C59.4473 133.273 59.5914 133.218 59.7576 133.2C59.9232 133.184 60.0943 133.222 60.271 133.316C60.4246 133.398 60.5432 133.504 60.6268 133.634C60.7098 133.765 60.7506 133.914 60.749 134.081C60.7475 134.248 60.6962 134.426 60.595 134.617L59.7656 136.177L59.4866 136.028L60.3068 134.486C60.4068 134.297 60.432 134.116 60.3824 133.943C60.3321 133.77 60.2203 133.637 60.0468 133.545C59.9381 133.487 59.8197 133.458 59.6916 133.457C59.5634 133.455 59.4403 133.488 59.3222 133.554C59.2035 133.621 59.1049 133.728 59.0266 133.875ZM57.6395 133.888L58.4397 132.383L58.7188 132.531L57.4384 134.939L57.1672 134.795L57.3681 134.417L57.343 134.404C57.221 134.497 57.0807 134.549 56.9221 134.56C56.7618 134.571 56.5934 134.53 56.4168 134.436C56.2548 134.35 56.1307 134.24 56.0446 134.108C55.9568 133.975 55.9137 133.825 55.9152 133.659C55.9157 133.491 55.9665 133.313 56.0676 133.122L56.8971 131.562L57.1761 131.711L56.3559 133.253C56.2508 133.451 56.2232 133.637 56.2728 133.811C56.3214 133.984 56.4382 134.12 56.6232 134.218C56.7497 134.285 56.8765 134.318 57.0036 134.316C57.1308 134.314 57.2503 134.277 57.3623 134.205C57.4726 134.133 57.565 134.028 57.6395 133.888ZM55.083 131.483L54.9563 131.721L52.3113 133.243L52.1357 133.149L52.3483 132.749L52.4784 132.819L54.6045 131.592L54.6153 131.572L52.7388 130.574L52.8788 130.311L55.083 131.483ZM53.9511 129.996L53.5443 130.761L53.4859 130.871L52.2439 133.207L51.9648 133.058L53.672 129.848L53.9511 129.996ZM51.8565 128.826C52.0822 128.946 52.2406 129.113 52.3316 129.328C52.421 129.543 52.443 129.797 52.3975 130.089C52.351 130.381 52.2358 130.7 52.0519 131.045C51.8685 131.39 51.6692 131.663 51.4539 131.864C51.2371 132.065 51.0139 132.188 50.7846 132.234C50.5536 132.28 50.3263 132.243 50.1026 132.125C49.8789 132.006 49.7222 131.838 49.6323 131.621C49.5408 131.405 49.5183 131.151 49.5648 130.859C49.6097 130.568 49.7238 130.25 49.9072 129.905C50.0912 129.559 50.2915 129.286 50.5084 129.085C50.7242 128.883 50.9468 128.759 51.1762 128.714C51.4039 128.669 51.6307 128.706 51.8565 128.826ZM51.7164 129.089C51.4687 128.958 51.2112 128.976 50.9438 129.143C50.6759 129.312 50.4249 129.616 50.191 130.056C50.0354 130.349 49.9344 130.615 49.8881 130.856C49.8403 131.098 49.8462 131.304 49.906 131.477C49.9647 131.649 50.0761 131.779 50.2402 131.866C50.4858 131.996 50.7436 131.977 51.0137 131.807C51.2832 131.638 51.5347 131.334 51.7681 130.895C51.9237 130.602 52.0252 130.335 52.0725 130.095C52.1188 129.854 52.1123 129.648 52.053 129.478C51.9927 129.306 51.8805 129.177 51.7164 129.089Z" fill="black"/>
<path d="M25.4025 115.836L25.2365 115.548L27.5076 114.237C27.7132 114.12 27.9057 114.058 28.0851 114.051C28.2635 114.045 28.4235 114.087 28.5651 114.176C28.7068 114.265 28.8255 114.393 28.9214 114.559C29.0155 114.722 29.0693 114.885 29.0828 115.048C29.0963 115.211 29.0695 115.361 29.0025 115.498C28.9348 115.634 28.8271 115.745 28.6795 115.83L28.5162 115.547C28.6095 115.493 28.6778 115.421 28.7211 115.33C28.7635 115.24 28.78 115.141 28.7709 115.033C28.7612 114.924 28.7252 114.815 28.6631 114.708C28.5986 114.596 28.5185 114.512 28.4228 114.455C28.3265 114.397 28.2158 114.372 28.0906 114.38C27.9643 114.389 27.8254 114.437 27.6736 114.525L25.4025 115.836ZM26.2914 112.187L24.8322 113.03L24.6741 112.756L27.036 111.393L27.1941 111.666L26.8019 111.893L26.8144 111.914C26.9673 111.9 27.1189 111.929 27.2691 112.002C27.4183 112.076 27.5429 112.199 27.643 112.373C27.73 112.523 27.7744 112.676 27.7763 112.831C27.7771 112.986 27.7327 113.134 27.643 113.275C27.5533 113.415 27.4152 113.54 27.2286 113.647L25.6986 114.531L25.5406 114.257L27.0537 113.383C27.2382 113.277 27.3555 113.137 27.4055 112.963C27.4545 112.79 27.4299 112.618 27.3317 112.448C27.2701 112.341 27.1853 112.254 27.0772 112.185C26.9691 112.116 26.8476 112.078 26.7124 112.071C26.5763 112.065 26.436 112.104 26.2914 112.187ZM23.4355 112.429L26.5846 110.611L26.7427 110.884L23.5935 112.703L23.4355 112.429ZM25.2007 108.114C25.3167 108.315 25.382 108.516 25.3967 108.717C25.4114 108.917 25.3789 109.1 25.2992 109.265C25.2184 109.43 25.095 109.561 24.9289 109.657C24.7987 109.732 24.6616 109.775 24.5175 109.786C24.3723 109.797 24.2338 109.777 24.1018 109.727C23.9689 109.676 23.8563 109.598 23.7641 109.493L23.7471 109.503C23.7914 109.684 23.7746 109.859 23.6968 110.03C23.618 110.201 23.4938 110.335 23.324 110.432C23.1678 110.523 23.0042 110.565 22.8334 110.555C22.6626 110.546 22.5011 110.492 22.3489 110.394C22.195 110.296 22.0672 110.158 21.9654 109.982C21.8642 109.807 21.8097 109.628 21.802 109.447C21.7933 109.266 21.8275 109.099 21.9048 108.947C21.9815 108.793 22.098 108.671 22.2542 108.579C22.423 108.483 22.6017 108.443 22.7904 108.46C22.9781 108.477 23.1384 108.55 23.2713 108.679L23.2882 108.669C23.2421 108.537 23.2308 108.401 23.2542 108.262C23.2777 108.123 23.3303 107.993 23.4122 107.871C23.493 107.751 23.5985 107.653 23.7287 107.578C23.8947 107.482 24.0699 107.441 24.2542 107.455C24.437 107.468 24.6115 107.532 24.7779 107.645C24.9437 107.757 25.0847 107.913 25.2007 108.114ZM24.9423 108.263C24.8559 108.114 24.7535 107.998 24.6351 107.916C24.5151 107.833 24.3896 107.788 24.2586 107.779C24.127 107.768 24.0002 107.799 23.8782 107.869C23.7521 107.942 23.6591 108.04 23.5991 108.163C23.5382 108.287 23.5118 108.423 23.5201 108.57C23.5274 108.717 23.5724 108.863 23.6553 109.006C23.7381 109.15 23.8419 109.262 23.9667 109.343C24.0898 109.424 24.2203 109.469 24.3582 109.478C24.4945 109.487 24.6257 109.455 24.7517 109.382C24.8737 109.312 24.9638 109.218 25.022 109.101C25.0797 108.983 25.1028 108.851 25.0914 108.706C25.0784 108.561 25.0287 108.413 24.9423 108.263ZM23.4093 109.148C23.3382 109.025 23.2485 108.93 23.14 108.863C23.0315 108.796 22.9158 108.76 22.7931 108.756C22.6687 108.751 22.5483 108.782 22.4318 108.848C22.3176 108.915 22.2327 109.002 22.1771 109.109C22.1205 109.217 22.0957 109.334 22.1027 109.46C22.1081 109.585 22.1469 109.711 22.2191 109.836C22.2913 109.961 22.3809 110.058 22.488 110.127C22.5934 110.196 22.707 110.233 22.8287 110.238C22.9489 110.243 23.066 110.211 23.1802 110.144C23.2967 110.078 23.3842 109.99 23.4429 109.881C23.5 109.772 23.5265 109.653 23.5226 109.526C23.5181 109.397 23.4803 109.271 23.4093 109.148ZM23.7922 105.675C23.9201 105.896 23.9657 106.122 23.9292 106.352C23.891 106.582 23.7752 106.809 23.5818 107.032C23.3878 107.255 23.1212 107.465 22.7818 107.66C22.4435 107.856 22.13 107.981 21.8411 108.037C21.5507 108.093 21.2961 108.079 21.0774 107.997C20.8571 107.913 20.6836 107.762 20.5569 107.543C20.4303 107.323 20.3863 107.098 20.4249 106.866C20.4619 106.635 20.5774 106.407 20.7714 106.185C20.9637 105.961 21.2291 105.752 21.5673 105.557C21.9067 105.361 22.2216 105.235 22.512 105.18C22.8019 105.123 23.0562 105.136 23.2749 105.219C23.4919 105.301 23.6644 105.453 23.7922 105.675ZM23.5339 105.824C23.3936 105.581 23.1657 105.46 22.8502 105.46C22.5337 105.461 22.1596 105.586 21.728 105.835C21.441 106.001 21.2141 106.174 21.0472 106.353C20.8787 106.533 20.7741 106.711 20.7333 106.889C20.692 107.066 20.7177 107.235 20.8107 107.396C20.9498 107.637 21.1789 107.757 21.4981 107.756C21.8162 107.755 22.1906 107.631 22.6211 107.382C22.9082 107.216 23.1354 107.044 23.3029 106.865C23.4698 106.686 23.5734 106.508 23.6137 106.331C23.6534 106.154 23.6268 105.985 23.5339 105.824Z" fill="black"/>
<path d="M19 79.5117V79.8597L15.3636 78.5369V78.1818L19 76.859V77.207L15.7951 78.3469V78.3718L19 79.5117ZM17.6062 79.2614V77.4574H17.9045V79.2614H17.6062ZM17.9577 74.8185H16.2727V74.5025H19V74.8185H18.5472V74.8434C18.6869 74.9073 18.8035 75.0085 18.897 75.147C18.9893 75.2855 19.0355 75.4548 19.0355 75.6548C19.0355 75.8288 18.9976 75.9833 18.9219 76.1183C18.8449 76.2532 18.7325 76.3591 18.5845 76.4361C18.4366 76.513 18.2549 76.5515 18.0394 76.5515H16.2727V76.2354H18.0199C18.233 76.2354 18.4046 76.1727 18.5348 76.0472C18.6638 75.9218 18.7283 75.7608 18.7283 75.5643C18.7283 75.4412 18.6987 75.3228 18.6396 75.2092C18.5804 75.0955 18.494 75.002 18.3803 74.9286C18.2655 74.8552 18.1246 74.8185 17.9577 74.8185ZM20.0795 72.8753C20.0795 73.0611 20.0553 73.2239 20.0067 73.3635C19.9594 73.5032 19.8943 73.621 19.8114 73.7169C19.7286 73.8128 19.6357 73.8873 19.5327 73.9406L19.3622 73.6814C19.4309 73.6423 19.4983 73.5902 19.5646 73.5251C19.6309 73.4588 19.686 73.373 19.7298 73.2677C19.7736 73.1611 19.7955 73.0303 19.7955 72.8753C19.7955 72.6338 19.7351 72.4391 19.6143 72.2911C19.4936 72.142 19.306 72.0674 19.0515 72.0674H18.4371V72.0958C18.52 72.1325 18.6029 72.1852 18.6857 72.2538C18.7674 72.3225 18.8355 72.4124 18.8899 72.5237C18.9444 72.6338 18.9716 72.7705 18.9716 72.9339C18.9716 73.1517 18.9177 73.3452 18.81 73.5145C18.7023 73.6826 18.5484 73.8151 18.3484 73.9122C18.1471 74.0081 17.9074 74.056 17.6293 74.056C17.3535 74.056 17.1108 74.0093 16.9013 73.9157C16.6918 73.8211 16.5284 73.6891 16.4112 73.5198C16.294 73.3505 16.2354 73.1534 16.2354 72.9285C16.2354 72.7616 16.265 72.6231 16.3242 72.5131C16.3822 72.403 16.4544 72.3148 16.5408 72.2485C16.6272 72.181 16.7113 72.1283 16.793 72.0905V72.0585H16.2727V71.7496H19.071C19.3018 71.7496 19.4918 71.7987 19.641 71.8969C19.7901 71.9952 19.9002 72.1289 19.9712 72.2982C20.0434 72.4675 20.0795 72.6598 20.0795 72.8753ZM18.6822 72.8966C18.6822 72.7214 18.6402 72.5716 18.5561 72.4474C18.4709 72.3231 18.349 72.2278 18.1903 72.1615C18.0317 72.0952 17.8429 72.0621 17.6239 72.0621C17.4109 72.0621 17.2221 72.0946 17.0575 72.1597C16.8918 72.2248 16.7616 72.3195 16.6669 72.4438C16.571 72.5669 16.5231 72.7178 16.5231 72.8966C16.5231 73.0789 16.5722 73.2327 16.6705 73.3582C16.7687 73.4837 16.9013 73.5784 17.0682 73.6423C17.2339 73.7062 17.4192 73.7382 17.6239 73.7382C17.8323 73.7382 18.0163 73.7056 18.1761 73.6405C18.3348 73.5754 18.459 73.4801 18.549 73.3547C18.6378 73.2292 18.6822 73.0765 18.6822 72.8966ZM19.0497 68.8738C19.0485 69.0241 19.0183 69.1709 18.9592 69.3141C18.8988 69.4573 18.8023 69.5864 18.6697 69.7012C18.536 69.816 18.3596 69.9071 18.1406 69.9746C17.9216 70.0421 17.6523 70.0758 17.3327 70.0758C17.0368 70.0758 16.7657 70.0498 16.5195 69.9977C16.2733 69.9456 16.0603 69.8675 15.8803 69.7633C15.7004 69.6592 15.5613 69.5289 15.4631 69.3727C15.3636 69.2164 15.3139 69.0336 15.3139 68.824C15.3139 68.6275 15.3548 68.4541 15.4364 68.3038C15.5169 68.1535 15.6294 68.0315 15.7738 67.938C15.9182 67.8445 16.0845 67.7859 16.2727 67.7623V68.089C16.081 68.1221 15.9229 68.2008 15.7987 68.3251C15.6744 68.4494 15.6122 68.6157 15.6122 68.824C15.6122 69.1223 15.7507 69.3532 16.0277 69.5165C16.3035 69.6799 16.6953 69.7621 17.2031 69.7633V69.7402C17.0954 69.6822 17.0025 69.6077 16.9244 69.5165C16.8451 69.4242 16.7835 69.3194 16.7397 69.2022C16.6947 69.085 16.6722 68.9619 16.6722 68.8329C16.6722 68.6305 16.7237 68.4453 16.8267 68.2772C16.9285 68.1091 17.0688 67.9747 17.2475 67.8741C17.4251 67.7735 17.6281 67.7232 17.8565 67.7232C18.0732 67.7232 18.2726 67.7711 18.4549 67.867C18.6372 67.9617 18.7822 68.0955 18.8899 68.2683C18.9976 68.4399 19.0509 68.6417 19.0497 68.8738ZM18.7514 68.8738C18.7514 68.7151 18.7112 68.5737 18.6307 68.4494C18.5502 68.3239 18.4425 68.2251 18.3075 68.1529C18.1714 68.0807 18.0211 68.0446 17.8565 68.0446C17.692 68.0446 17.5429 68.0807 17.4091 68.1529C17.2753 68.2251 17.1688 68.3239 17.0895 68.4494C17.0102 68.5737 16.9705 68.7151 16.9705 68.8738C16.9705 68.9945 16.9954 69.1069 17.0451 69.2111C17.0936 69.3153 17.1605 69.4058 17.2457 69.4828C17.3298 69.5585 17.4263 69.6165 17.5352 69.6568C17.6441 69.6958 17.7583 69.7106 17.8778 69.7012C18.0447 69.6882 18.1945 69.6449 18.3271 69.5716C18.4585 69.497 18.562 69.3999 18.6378 69.2804C18.7135 69.1596 18.7514 69.0241 18.7514 68.8738ZM19.0497 66.0929C19.0497 66.3485 18.9763 66.5669 18.8295 66.748C18.6816 66.928 18.4679 67.0665 18.1886 67.1635C17.9092 67.2594 17.5736 67.3074 17.1818 67.3074C16.7912 67.3074 16.4568 67.2594 16.1786 67.1635C15.8993 67.0665 15.6856 66.9274 15.5376 66.7463C15.3885 66.564 15.3139 66.3462 15.3139 66.0929C15.3139 65.8395 15.3885 65.6223 15.5376 65.4412C15.6856 65.2589 15.8993 65.1199 16.1786 65.024C16.4568 64.9269 16.7912 64.8784 17.1818 64.8784C17.5736 64.8784 17.9092 64.9269 18.1886 65.024C18.4679 65.1199 18.6816 65.2583 18.8295 65.4395C18.9763 65.6194 19.0497 65.8372 19.0497 66.0929ZM18.7514 66.0929C18.7514 65.8123 18.6147 65.5933 18.3413 65.4359C18.0666 65.2785 17.6802 65.1998 17.1818 65.1998C16.8504 65.1998 16.5675 65.2359 16.3331 65.3081C16.0975 65.3791 15.9176 65.4815 15.7933 65.6152C15.669 65.7478 15.6069 65.907 15.6069 66.0929C15.6069 66.371 15.7454 66.5894 16.0224 66.748C16.2982 66.9067 16.6847 66.986 17.1818 66.986C17.5133 66.986 17.7962 66.9505 18.0305 66.8794C18.2649 66.8072 18.4437 66.7048 18.5668 66.5723C18.6899 66.4385 18.7514 66.2787 18.7514 66.0929Z" fill="black"/>
<path d="M22.3447 37.476C22.1873 37.3471 22.0103 37.2965 21.8136 37.3241C21.6169 37.3517 21.4336 37.4505 21.2637 37.6204C21.144 37.7401 21.059 37.8661 21.0088 37.9983C20.9594 38.1297 20.9452 38.2578 20.9661 38.3825C20.9871 38.5055 21.0436 38.6131 21.1356 38.7052C21.2034 38.773 21.2775 38.8178 21.3579 38.8395C21.4382 38.8613 21.5215 38.8659 21.6077 38.8533C21.6939 38.8391 21.7801 38.8148 21.8663 38.7805C21.9534 38.7454 22.0367 38.7056 22.1162 38.6612L22.4652 38.4679C22.5699 38.4085 22.6808 38.3553 22.7979 38.3084C22.9151 38.2616 23.0344 38.231 23.1558 38.2168C23.2771 38.2009 23.3968 38.2109 23.5148 38.2469C23.6329 38.2812 23.7454 38.352 23.8526 38.4591C23.9898 38.5964 24.0777 38.7554 24.1162 38.9362C24.1547 39.117 24.1397 39.3061 24.071 39.5037C24.0016 39.7004 23.8739 39.8916 23.6881 40.0775C23.5132 40.2524 23.3324 40.3754 23.1457 40.4466C22.9582 40.5169 22.7762 40.5374 22.5996 40.5081C22.423 40.4788 22.2622 40.401 22.1174 40.2746L22.3585 40.0335C22.4682 40.1264 22.5874 40.1787 22.7163 40.1905C22.8452 40.2022 22.975 40.1796 23.1055 40.1227C23.2353 40.0649 23.3579 39.9783 23.4734 39.8628C23.6015 39.7347 23.694 39.5995 23.7509 39.4572C23.8078 39.3133 23.8262 39.1743 23.8061 39.0404C23.786 38.9048 23.7245 38.7855 23.6216 38.6826C23.5345 38.5955 23.4391 38.5453 23.3353 38.5319C23.2307 38.5177 23.1177 38.5311 22.9963 38.5721C22.8758 38.6123 22.7469 38.67 22.6096 38.7454L22.2116 38.9626C21.9496 39.104 21.7098 39.1772 21.4922 39.1823C21.2746 39.1873 21.0833 39.1074 20.9184 38.9425C20.7803 38.8044 20.6958 38.6462 20.6648 38.4679C20.6338 38.2879 20.6523 38.1055 20.7201 37.9205C20.7879 37.7338 20.9009 37.5614 21.059 37.4032C21.2189 37.2433 21.3897 37.1312 21.5713 37.0667C21.7529 37.0023 21.9312 36.9855 22.1061 37.0165C22.2811 37.0458 22.4363 37.1232 22.5719 37.2488L22.3447 37.476ZM25.6972 38.0608C25.5172 38.2408 25.3197 38.3546 25.1046 38.4023C24.8886 38.4492 24.6702 38.4342 24.4492 38.3571C24.2282 38.2785 24.0202 38.1416 23.8252 37.9466C23.631 37.7524 23.4942 37.5444 23.4146 37.3226C23.3351 37.0991 23.3159 36.8815 23.3569 36.6697C23.3979 36.4563 23.5017 36.2663 23.6683 36.0997C23.7729 35.9951 23.893 35.9135 24.0286 35.8549C24.1634 35.7955 24.3086 35.7666 24.4643 35.7683C24.6199 35.7683 24.7798 35.8051 24.9439 35.8788C25.1071 35.9516 25.2695 36.0688 25.431 36.2303L25.5415 36.3408L24.0349 37.8474L23.8378 37.6503L25.1159 36.3722C24.992 36.2483 24.8556 36.1621 24.7066 36.1135C24.5576 36.0633 24.4099 36.0537 24.2634 36.0847C24.1177 36.1148 23.9872 36.1876 23.8717 36.3031C23.7495 36.4253 23.6745 36.5655 23.6469 36.7237C23.6193 36.8819 23.6327 37.0409 23.6871 37.2008C23.7423 37.3598 23.8332 37.5034 23.9595 37.6315L24.0776 37.7495C24.2307 37.9026 24.391 38.0102 24.5584 38.0721C24.7258 38.1324 24.8899 38.145 25.0506 38.1098C25.2113 38.0747 25.3586 37.9901 25.4925 37.8562C25.5838 37.765 25.6495 37.6708 25.6896 37.5737C25.7307 37.4758 25.7507 37.3795 25.7499 37.2849C25.7491 37.1887 25.7319 37.0995 25.6984 37.0175L25.9797 36.8744C26.0316 36.9849 26.0583 37.1079 26.06 37.2435C26.0625 37.3783 26.0349 37.5164 25.9772 37.6578C25.9194 37.7976 25.8261 37.9319 25.6972 38.0608ZM27.4781 37.646L24.8264 34.9943L25.0436 34.7771L25.4115 35.145L25.4378 35.1186C25.4069 35.0341 25.3847 34.9382 25.3713 34.8311C25.3571 34.7231 25.3675 34.6097 25.4027 34.4908C25.4387 34.3712 25.5157 34.2523 25.6337 34.1343C25.7927 33.9752 25.9735 33.8782 26.1761 33.843C26.3786 33.8062 26.5879 33.8296 26.8038 33.9133C27.0198 33.9953 27.227 34.1355 27.4253 34.3339C27.6245 34.5331 27.7656 34.7411 27.8484 34.9579C27.9321 35.1738 27.956 35.3835 27.92 35.5869C27.8848 35.7895 27.7886 35.9694 27.6312 36.1268C27.5149 36.2431 27.3965 36.3197 27.2759 36.3565C27.1562 36.3925 27.0416 36.4043 26.9319 36.3917C26.8223 36.3775 26.7252 36.354 26.6406 36.3214L26.6205 36.3415L27.7015 37.4225L27.4781 37.646ZM26.0129 35.7388C26.1686 35.8945 26.3297 36.0096 26.4962 36.0841C26.6628 36.1569 26.8239 36.1841 26.9796 36.1657C27.1353 36.1456 27.2755 36.0732 27.4002 35.9485C27.5283 35.8204 27.6011 35.6773 27.6187 35.5191C27.6363 35.3592 27.6078 35.196 27.5333 35.0295C27.4596 34.8621 27.3479 34.7034 27.1981 34.5536C27.0499 34.4055 26.8934 34.295 26.7285 34.2222C26.5645 34.1485 26.4033 34.1213 26.2451 34.1406C26.0861 34.159 25.9421 34.2326 25.8132 34.3615C25.6877 34.4871 25.6149 34.6277 25.5948 34.7834C25.5739 34.9382 25.5998 35.0981 25.6726 35.263C25.7454 35.4262 25.8589 35.5848 26.0129 35.7388ZM29.5809 34.0967L28.4083 30.5813L28.392 30.565L27.0423 31.9147L26.8313 31.7037L28.4271 30.108L28.6481 30.3289L29.8283 33.8494L29.5809 34.0967ZM32.0749 31.673C31.9318 31.8162 31.7749 31.9153 31.6041 31.9706C31.4334 32.0242 31.2635 32.0334 31.0944 31.9982C30.9261 31.9622 30.7742 31.8806 30.6386 31.7534L30.8659 31.5261C31.0099 31.655 31.1756 31.7136 31.3631 31.7019C31.5497 31.6893 31.7167 31.6094 31.864 31.4621C31.9787 31.3474 32.0536 31.2181 32.0888 31.0741C32.1231 30.9293 32.1176 30.7841 32.0724 30.6385C32.0272 30.4912 31.9444 30.3572 31.8238 30.2367C31.6975 30.112 31.5598 30.0287 31.4108 29.9869C31.261 29.9442 31.1128 29.9417 30.9663 29.9793C30.8207 30.0162 30.6909 30.0915 30.5771 30.2053C30.4901 30.2907 30.4198 30.3895 30.3662 30.5016C30.3126 30.6138 30.2812 30.7205 30.272 30.8218L30.0071 31.0264L28.9123 29.6228L30.1829 28.3522L30.3938 28.5631L29.3203 29.6366L30.0774 30.5996L30.09 30.587C30.0992 30.4824 30.1293 30.3744 30.1804 30.2631C30.2323 30.1509 30.3038 30.0492 30.3951 29.958C30.5466 29.8065 30.719 29.7069 30.9123 29.6592C31.1065 29.6106 31.3028 29.6152 31.5012 29.673C31.6995 29.7291 31.8816 29.84 32.0473 30.0057C32.2097 30.1681 32.3194 30.3489 32.3763 30.5481C32.4332 30.7456 32.4365 30.9432 32.3863 31.1407C32.3369 31.3374 32.2331 31.5148 32.0749 31.673Z" fill="black"/>
</svg>
