<svg width="17" height="17" viewBox="0 0 17 17" fill="none" xmlns="http://www.w3.org/2000/svg">
<g id="portfolio 1">
<path id="Path 0" fill-rule="evenodd" clip-rule="evenodd" d="M1.39453 16.0039H15.6055L15.7283 16.1234C15.8512 16.2396 15.8545 16.2496 15.8346 16.4156C15.8146 16.5484 15.7881 16.6049 15.6055 16.7676H1.39453L1.26836 16.648C1.14883 16.5318 1.14551 16.5219 1.16543 16.3559C1.18535 16.223 1.21191 16.1666 1.2916 16.0969L1.39453 16.0039ZM4.73145 0.245702C4.95059 0.252343 5.22617 0.285546 5.3457 0.315428C5.46523 0.345311 5.68105 0.424999 5.82715 0.494725C5.97324 0.561132 6.16582 0.667382 6.25879 0.727147C6.34844 0.790233 6.51777 0.933007 6.63398 1.04258C6.7502 1.15215 6.91289 1.33476 6.98926 1.44433C7.06895 1.55391 7.1918 1.76973 7.26484 1.92578C7.33789 2.07851 7.4209 2.3043 7.45078 2.42383C7.48066 2.54004 7.51719 2.7791 7.52715 2.95508C7.53711 3.13105 7.53047 3.38672 7.50723 3.53613C7.4873 3.68223 7.43418 3.90469 7.39102 4.03418C7.34785 4.16035 7.27148 4.34629 7.22168 4.44922C7.17188 4.54883 7.06563 4.72148 6.98926 4.83105C6.90957 4.94062 6.7502 5.11992 6.63398 5.22949C6.51777 5.33906 6.34844 5.48183 6.25879 5.5416C6.16582 5.60469 5.98652 5.7043 5.86035 5.76406C5.73086 5.82383 5.5084 5.90683 5.3623 5.94668C5.1498 6.00312 5.00371 6.01973 4.63184 6.01973C4.25664 6.01973 4.11387 6.00312 3.90137 5.94668C3.75527 5.90683 3.51621 5.81387 3.37012 5.74414C3.22402 5.67441 3.0082 5.5416 2.88867 5.45195C2.76914 5.3623 2.59648 5.20625 2.50684 5.10664C2.41387 5.00703 2.28105 4.83769 2.20801 4.72812C2.13828 4.61855 2.03535 4.43262 1.98223 4.31641C1.9291 4.19687 1.85605 3.98769 1.81953 3.85156C1.78633 3.71211 1.74648 3.45976 1.73652 3.28711C1.72324 3.06465 1.7332 2.87539 1.77305 2.66289C1.80293 2.49355 1.86934 2.24121 1.92578 2.09844C1.97891 1.95566 2.07852 1.74648 2.14824 1.63027C2.21797 1.51074 2.37734 1.30488 2.50684 1.16875C2.63301 1.0293 2.82891 0.856639 2.93848 0.776952C3.04805 0.700585 3.2207 0.594335 3.32031 0.54453C3.41992 0.494725 3.58594 0.424999 3.68555 0.388475C3.78516 0.355272 3.97109 0.305468 4.10059 0.278905C4.25332 0.249022 4.46914 0.235741 4.73145 0.245702ZM14.9812 0.833397C15.1406 0.830077 15.3033 0.843358 15.3398 0.86328C15.3764 0.879882 15.4195 0.933007 15.4395 0.979491C15.4627 1.03926 15.4428 1.26836 15.3564 1.86601C15.29 2.30762 15.2303 2.70605 15.2236 2.7459C15.2137 2.78574 15.1771 2.85215 15.1406 2.88867C15.1008 2.92519 15.0311 2.95176 14.9646 2.95176C14.8982 2.95176 14.8285 2.92187 14.782 2.87871C14.7355 2.83223 14.7057 2.76582 14.7057 2.70605C14.7057 2.64961 14.7322 2.43711 14.7654 2.23457C14.7986 2.02871 14.8119 1.84941 14.7986 1.83613C14.7854 1.81953 14.709 1.86933 14.6326 1.94238C14.5562 2.01875 14.3437 2.20469 14.1611 2.36074C13.9785 2.5168 13.6266 2.80234 13.3809 3.00156C13.1352 3.20078 12.677 3.55273 12.3682 3.78183C12.0561 4.01426 11.5879 4.35293 11.3223 4.53555C11.0566 4.72148 10.6383 5.00039 10.3926 5.16308C10.1469 5.32246 9.65215 5.62793 9.29688 5.84375C8.9416 6.05625 8.40371 6.36836 8.10156 6.53769C7.79941 6.70371 7.08887 7.07226 6.52441 7.35117C5.95664 7.6334 5.19629 7.99199 4.83105 8.15137C4.46582 8.31074 3.81504 8.57969 3.38672 8.74902C2.9584 8.91836 2.39395 9.13086 2.13164 9.22383C1.87266 9.32012 1.61699 9.39316 1.56719 9.39316C1.51738 9.39316 1.44434 9.35996 1.40117 9.32012C1.35137 9.27031 1.3248 9.20723 1.32812 9.1375C1.32812 9.07773 1.35469 9.00469 1.38457 8.97148C1.41777 8.93828 1.62363 8.84863 1.84277 8.76894C2.06191 8.68926 2.52344 8.51328 2.87207 8.38047C3.21738 8.24765 3.65234 8.075 3.83496 7.99863C4.01758 7.92558 4.44258 7.73965 4.78125 7.59023C5.11992 7.44414 5.83711 7.10215 6.375 6.8332C6.91289 6.56426 7.6002 6.20898 7.90234 6.03965C8.20449 5.87031 8.72578 5.56816 9.06445 5.36562C9.40312 5.16308 10.0307 4.76465 10.459 4.47578C10.8873 4.19023 11.4484 3.80508 11.7041 3.61582C11.9598 3.42988 12.3914 3.10449 12.6637 2.89199C12.9359 2.67949 13.3842 2.31426 13.6598 2.08516C13.9354 1.85273 14.2275 1.60039 14.46 1.39121L13.4838 1.44433L13.3975 1.36133C13.3443 1.3082 13.3111 1.2418 13.3145 1.18535C13.3145 1.13555 13.3244 1.06914 13.3377 1.03926C13.351 1.00937 13.3941 0.96953 13.4307 0.949608C13.4672 0.929686 13.766 0.896483 14.0947 0.876561C14.4234 0.853319 14.8219 0.836718 14.9812 0.833397ZM4.37949 1.31152C4.38281 1.42441 4.36953 1.46426 4.32305 1.47754C4.29316 1.4875 4.19355 1.53066 4.10391 1.57051C4.01426 1.61035 3.88145 1.70332 3.80508 1.77637C3.73203 1.84941 3.64238 1.97558 3.60586 2.05859C3.56602 2.15488 3.54277 2.28105 3.54277 2.42383C3.54277 2.58652 3.5627 2.67949 3.62578 2.80566C3.67227 2.89531 3.75859 3.01152 3.82168 3.06465C3.88477 3.11777 3.99102 3.1875 4.05742 3.22402C4.12715 3.25723 4.36621 3.33027 4.58867 3.38672C4.82773 3.44316 5.04687 3.51953 5.11992 3.56933C5.21289 3.6291 5.25273 3.68555 5.2793 3.78516C5.29922 3.86484 5.29922 3.94453 5.28262 3.99101C5.26602 4.03086 5.22617 4.09062 5.18965 4.12383C5.15645 4.15703 5.07012 4.20351 4.99707 4.23008C4.92402 4.25664 4.76797 4.27988 4.64844 4.27988C4.50566 4.27988 4.38613 4.25996 4.2998 4.22012C4.22676 4.18359 4.13379 4.12051 4.09395 4.07734C4.0541 4.03418 3.99766 3.94453 3.96777 3.8748C3.94121 3.80508 3.88477 3.72871 3.8416 3.69883C3.80176 3.67226 3.73867 3.64902 3.70215 3.64902C3.66562 3.64902 3.59258 3.67891 3.54277 3.71543C3.47305 3.76855 3.45312 3.81172 3.45312 3.90801C3.45312 3.97773 3.47969 4.09394 3.51289 4.16699C3.54609 4.24004 3.62578 4.35625 3.68887 4.42598C3.74863 4.49902 3.86816 4.59531 3.95117 4.6418C4.03418 4.68828 4.16035 4.74473 4.2334 4.76465C4.35957 4.80117 4.36621 4.81113 4.38281 4.95723C4.39277 5.04023 4.42266 5.12988 4.44922 5.15976C4.47578 5.18633 4.54219 5.21953 4.59863 5.22949C4.675 5.24609 4.71816 5.23281 4.79121 5.17305C4.85098 5.11992 4.89082 5.04687 4.90742 4.95058C4.93066 4.80781 4.93398 4.80449 5.11328 4.74805C5.21289 4.71816 5.3623 4.64844 5.44531 4.59199C5.52832 4.53555 5.63457 4.43262 5.68437 4.35957C5.73418 4.28984 5.79063 4.15703 5.81055 4.06738C5.83379 3.94785 5.83379 3.84824 5.81055 3.71875C5.79063 3.61582 5.74746 3.48965 5.71094 3.43652C5.67773 3.38008 5.58477 3.27715 5.50508 3.2041C5.42539 3.13105 5.30254 3.04805 5.22949 3.01484C5.15645 2.98164 4.95391 2.92519 4.78125 2.88535C4.60859 2.84883 4.40605 2.78906 4.33301 2.75586C4.25996 2.72266 4.17363 2.66953 4.14043 2.63301C4.10391 2.59648 4.07734 2.51348 4.07402 2.43379C4.06738 2.3375 4.0873 2.26445 4.13379 2.20137C4.17363 2.14824 4.26328 2.07851 4.33301 2.04199C4.41602 2.00215 4.53223 1.9789 4.64844 1.9789C4.74805 1.98223 4.87422 2.00547 4.93066 2.03203C4.98379 2.05859 5.07344 2.13828 5.12988 2.20469C5.18301 2.27109 5.26934 2.3707 5.31914 2.42383C5.37559 2.48359 5.44531 2.52344 5.49512 2.52344C5.5416 2.52344 5.61797 2.48359 5.66113 2.44043C5.71426 2.38398 5.74414 2.31758 5.74414 2.24785C5.74414 2.18476 5.7043 2.07519 5.65117 1.99219C5.59805 1.90918 5.4918 1.78301 5.40879 1.7166C5.3291 1.64687 5.18633 1.56055 5.09668 1.52734C4.94062 1.4709 4.92734 1.45762 4.90742 1.32148C4.89082 1.23183 4.85098 1.14883 4.79785 1.10234C4.75137 1.0625 4.67832 1.0293 4.63516 1.0293C4.59199 1.0293 4.51562 1.05918 4.46582 1.0957C4.38945 1.15547 4.37617 1.18867 4.37949 1.31152ZM14.1678 4.94726C14.7588 4.94726 14.9281 4.95723 15.0078 4.99707C15.0609 5.02363 15.1307 5.09004 15.1572 5.14648C15.2004 5.23281 15.207 5.83711 15.207 9.97754C15.207 13.3941 15.1971 14.7289 15.1705 14.782C15.1473 14.8219 15.1008 14.8816 15.0609 14.9148C14.9979 14.9646 14.8982 14.9713 14.1777 14.9713C13.4074 14.9746 13.3609 14.9713 13.2879 14.9082C13.248 14.8717 13.1982 14.802 13.1816 14.7588C13.1584 14.7023 13.1484 13.0322 13.1484 9.98418C13.1451 6.28203 13.1551 5.26933 13.1883 5.17969C13.2115 5.1166 13.2746 5.03691 13.3311 5.00703C13.4174 4.95391 13.517 4.94726 14.1678 4.94726ZM10.3826 6.87305C10.9736 6.87305 11.143 6.88301 11.2227 6.92285C11.2758 6.94941 11.3455 7.01582 11.3721 7.07226C11.4152 7.15859 11.4219 7.65332 11.4219 10.9139C11.4219 13.2514 11.4086 14.6957 11.3887 14.7588C11.3721 14.8119 11.3189 14.8816 11.2725 14.9148C11.1994 14.9646 11.0965 14.9746 10.3826 14.9746C9.62227 14.9746 9.57578 14.9713 9.50274 14.9082C9.46289 14.8717 9.41309 14.802 9.39648 14.7588C9.37324 14.7023 9.36328 13.3543 9.36328 10.9471C9.35996 8.02187 9.36992 7.19512 9.40313 7.10547C9.42637 7.04238 9.48945 6.96269 9.5459 6.93281C9.63223 6.87969 9.73184 6.87305 10.3826 6.87305ZM6.59746 9.03125C7.15195 9.03125 7.39434 9.04121 7.4541 9.07109C7.50059 9.09433 7.56035 9.16074 7.58691 9.22051C7.63008 9.31348 7.63672 9.72851 7.63672 12.0029C7.63672 13.7062 7.62344 14.7057 7.60352 14.7588C7.58359 14.802 7.53711 14.8717 7.49395 14.9082C7.42422 14.9713 7.37773 14.9746 6.61406 14.9746C5.90352 14.9746 5.80059 14.9646 5.72422 14.9148C5.67773 14.8816 5.62793 14.8119 5.60801 14.7588C5.58809 14.6957 5.57812 13.6299 5.57812 11.993C5.57812 9.53594 5.58145 9.32012 5.63457 9.21719C5.66777 9.1541 5.7209 9.08769 5.76074 9.06777C5.80059 9.04785 6.12266 9.03457 6.59746 9.03125ZM2.82227 11.06C3.26387 11.06 3.54277 11.0732 3.61914 11.0998C3.69883 11.1264 3.75195 11.1762 3.7918 11.2559C3.84492 11.3588 3.85156 11.5148 3.85156 13.0223C3.85156 14.0449 3.83828 14.7057 3.81836 14.7588C3.79844 14.802 3.75195 14.8717 3.70879 14.9082C3.63906 14.9713 3.59258 14.9746 2.82227 14.9713C2.10176 14.9713 1.99883 14.9646 1.93574 14.9148C1.89922 14.8816 1.84941 14.8219 1.82949 14.782C1.80293 14.7289 1.79297 14.1977 1.79297 13.0223C1.79297 11.3555 1.79297 11.3355 1.8627 11.2293C1.90254 11.1729 1.98223 11.1098 2.03867 11.0932C2.09512 11.0766 2.44707 11.06 2.82227 11.06Z" fill="#221F1F" fill-opacity="0.54"/>
</g>
</svg>
