<svg width="16" height="20" viewBox="0 0 16 20" fill="none" xmlns="http://www.w3.org/2000/svg">
<g id="image 3_layerstyle">
<g id="Group">
<g id="Vector">
<mask id="path-1-outside-1_14_377" maskUnits="userSpaceOnUse" x="0" y="0" width="16" height="20" fill="black">
<rect fill="white" width="16" height="20"/>
<path fill-rule="evenodd" clip-rule="evenodd" d="M8.3181 1C8.43839 1 8.689 1.07 8.86943 1.17C9.03984 1.26 9.37064 1.46 9.59118 1.62C9.9721 1.9 10.0322 1.91 10.9545 1.88C11.6963 1.86 11.9569 1.88 12.0972 2C12.1975 2.08 12.408 2.42 12.5684 2.75C12.7388 3.08 12.9493 3.43 13.0395 3.54C13.1297 3.64 13.5006 3.87 13.8815 4.06C14.2524 4.25 14.6233 4.5 14.7035 4.62C14.8338 4.8 14.8539 5.02 14.7336 6.55L15.1947 7.25C15.4553 7.63 15.6658 8.02 15.6658 8.1C15.6759 8.18 15.6658 8.34 15.6558 8.45C15.6458 8.56 15.4353 8.94 14.7436 9.95L14.8038 10.8C14.8439 11.41 14.8238 11.72 14.7336 11.9C14.6434 12.05 14.2925 12.3 13.8013 12.55C13.3102 12.79 12.9894 13.02 12.9794 13.12C12.9593 13.22 13.4204 14.12 14.0018 15.12C14.5832 16.13 15.0644 17.03 15.0544 17.12C15.0544 17.28 14.9441 17.3 12.9292 17.25L12.4882 18.12C12.1874 18.72 11.987 19 11.8767 19C11.7464 19 11.3554 18.42 10.5735 17.05C9.95205 15.98 9.41074 15.11 9.37064 15.13C9.32052 15.14 9.07994 15.27 8.33815 15.65L7.86701 15.4C7.59636 15.27 7.35578 15.14 7.31568 15.13C7.26556 15.11 6.72425 15.98 6.11278 17.05C5.32086 18.42 4.92992 19 4.80963 19C4.68934 19 4.48885 18.72 3.74706 17.25L2.6845 17.27C1.7322 17.3 1.62193 17.28 1.62193 17.12C1.62193 17.03 2.09307 16.13 2.67447 15.12C3.25588 14.12 3.71699 13.22 3.69694 13.12C3.68692 13.02 3.36614 12.79 2.87496 12.55C2.38377 12.3 2.03292 12.05 1.95273 11.9C1.85249 11.72 1.83244 11.4 1.93268 9.95L1.48159 9.27C1.23099 8.9 1.01046 8.48 1.00043 8.32C0.990407 8.15 1.15079 7.79 1.94271 6.55L1.88256 5.75C1.83244 5.19 1.85249 4.88 1.94271 4.7C2.0229 4.56 2.36372 4.3 2.73462 4.1C3.10551 3.91 3.47641 3.68 3.57665 3.6C3.67689 3.52 3.89743 3.16 4.07786 2.8C4.2583 2.44 4.47883 2.08 4.56905 2C4.69936 1.89 4.95999 1.86 5.71181 1.88C6.64406 1.91 6.7042 1.9 7.08512 1.62C7.30566 1.46 7.61641 1.26 7.78682 1.17C7.95723 1.08 8.18779 1.01 8.3181 1V1ZM6.88464 2.5H4.92992C4.39864 3.55 4.14803 3.94 4.02774 4.05C3.90745 4.16 3.53656 4.39 3.19573 4.56L2.57423 4.86C2.47399 6.83 2.46397 6.88 2.05297 7.51C1.81239 7.86 1.62193 8.21 1.62193 8.27C1.62193 8.34 1.82242 8.7 2.07302 9.07L2.52411 9.75V11.7C4.06784 12.45 4.07786 12.46 4.49888 13.25L4.9199 14.05H6.88464C7.89709 14.71 8.25796 14.91 8.33815 14.91C8.41834 14.91 8.77922 14.71 9.14009 14.48L9.79166 14.05H11.7564C12.5984 12.46 12.6085 12.45 13.3703 12.08L14.1522 11.7V9.75C14.8539 8.7 15.0544 8.34 15.0544 8.27C15.0544 8.21 14.8639 7.86 14.6233 7.51C14.2123 6.88 14.2023 6.83 14.1522 5.86L14.1021 4.86C13.1397 4.39 12.7688 4.16 12.6486 4.05C12.5283 3.94 12.2777 3.55 12.0872 3.17L11.7464 2.5H9.79166C8.70905 1.8 8.36822 1.6 8.33815 1.6C8.30808 1.6 7.96725 1.8 7.58633 2.05L6.88464 2.5ZM2.54416 16.62C2.53413 16.67 2.77472 16.67 3.09549 16.64C3.41626 16.6 3.78716 16.6 3.9275 16.63C4.10794 16.67 4.2583 16.85 4.47883 17.3C4.63922 17.63 4.79961 17.91 4.82968 17.91C4.84973 17.91 5.27074 17.23 5.7519 16.41C6.23307 15.58 6.63404 14.86 6.63404 14.8C6.63404 14.74 6.33331 14.72 5.80203 14.76C5.15045 14.81 4.90987 14.79 4.64924 14.66C4.46881 14.58 4.32847 14.47 4.32847 14.43C4.32847 14.39 4.26832 14.27 4.19815 14.17C4.08789 14 3.99767 14.11 3.32605 15.26C2.90503 15.97 2.55418 16.58 2.54416 16.62ZM11.9769 14.68C11.7765 14.78 11.4457 14.8 10.8643 14.76C10.343 14.72 10.0423 14.74 10.0423 14.8C10.0423 14.86 10.4332 15.58 10.9144 16.41C11.3955 17.23 11.8165 17.91 11.8466 17.91C11.8667 17.91 12.007 17.68 12.1473 17.4C12.2777 17.11 12.4781 16.81 12.5784 16.72C12.7288 16.58 12.8791 16.56 13.4505 16.63C13.8314 16.67 14.1522 16.69 14.1522 16.68C14.1522 16.66 13.8114 16.07 13.3904 15.35C12.9794 14.64 12.6185 14.04 12.6085 14.02C12.5884 14 12.5082 14.11 12.428 14.27C12.3378 14.42 12.1373 14.61 11.9769 14.68Z"/>
</mask>
<path fill-rule="evenodd" clip-rule="evenodd" d="M8.3181 1C8.43839 1 8.689 1.07 8.86943 1.17C9.03984 1.26 9.37064 1.46 9.59118 1.62C9.9721 1.9 10.0322 1.91 10.9545 1.88C11.6963 1.86 11.9569 1.88 12.0972 2C12.1975 2.08 12.408 2.42 12.5684 2.75C12.7388 3.08 12.9493 3.43 13.0395 3.54C13.1297 3.64 13.5006 3.87 13.8815 4.06C14.2524 4.25 14.6233 4.5 14.7035 4.62C14.8338 4.8 14.8539 5.02 14.7336 6.55L15.1947 7.25C15.4553 7.63 15.6658 8.02 15.6658 8.1C15.6759 8.18 15.6658 8.34 15.6558 8.45C15.6458 8.56 15.4353 8.94 14.7436 9.95L14.8038 10.8C14.8439 11.41 14.8238 11.72 14.7336 11.9C14.6434 12.05 14.2925 12.3 13.8013 12.55C13.3102 12.79 12.9894 13.02 12.9794 13.12C12.9593 13.22 13.4204 14.12 14.0018 15.12C14.5832 16.13 15.0644 17.03 15.0544 17.12C15.0544 17.28 14.9441 17.3 12.9292 17.25L12.4882 18.12C12.1874 18.72 11.987 19 11.8767 19C11.7464 19 11.3554 18.42 10.5735 17.05C9.95205 15.98 9.41074 15.11 9.37064 15.13C9.32052 15.14 9.07994 15.27 8.33815 15.65L7.86701 15.4C7.59636 15.27 7.35578 15.14 7.31568 15.13C7.26556 15.11 6.72425 15.98 6.11278 17.05C5.32086 18.42 4.92992 19 4.80963 19C4.68934 19 4.48885 18.72 3.74706 17.25L2.6845 17.27C1.7322 17.3 1.62193 17.28 1.62193 17.12C1.62193 17.03 2.09307 16.13 2.67447 15.12C3.25588 14.12 3.71699 13.22 3.69694 13.12C3.68692 13.02 3.36614 12.79 2.87496 12.55C2.38377 12.3 2.03292 12.05 1.95273 11.9C1.85249 11.72 1.83244 11.4 1.93268 9.95L1.48159 9.27C1.23099 8.9 1.01046 8.48 1.00043 8.32C0.990407 8.15 1.15079 7.79 1.94271 6.55L1.88256 5.75C1.83244 5.19 1.85249 4.88 1.94271 4.7C2.0229 4.56 2.36372 4.3 2.73462 4.1C3.10551 3.91 3.47641 3.68 3.57665 3.6C3.67689 3.52 3.89743 3.16 4.07786 2.8C4.2583 2.44 4.47883 2.08 4.56905 2C4.69936 1.89 4.95999 1.86 5.71181 1.88C6.64406 1.91 6.7042 1.9 7.08512 1.62C7.30566 1.46 7.61641 1.26 7.78682 1.17C7.95723 1.08 8.18779 1.01 8.3181 1V1ZM6.88464 2.5H4.92992C4.39864 3.55 4.14803 3.94 4.02774 4.05C3.90745 4.16 3.53656 4.39 3.19573 4.56L2.57423 4.86C2.47399 6.83 2.46397 6.88 2.05297 7.51C1.81239 7.86 1.62193 8.21 1.62193 8.27C1.62193 8.34 1.82242 8.7 2.07302 9.07L2.52411 9.75V11.7C4.06784 12.45 4.07786 12.46 4.49888 13.25L4.9199 14.05H6.88464C7.89709 14.71 8.25796 14.91 8.33815 14.91C8.41834 14.91 8.77922 14.71 9.14009 14.48L9.79166 14.05H11.7564C12.5984 12.46 12.6085 12.45 13.3703 12.08L14.1522 11.7V9.75C14.8539 8.7 15.0544 8.34 15.0544 8.27C15.0544 8.21 14.8639 7.86 14.6233 7.51C14.2123 6.88 14.2023 6.83 14.1522 5.86L14.1021 4.86C13.1397 4.39 12.7688 4.16 12.6486 4.05C12.5283 3.94 12.2777 3.55 12.0872 3.17L11.7464 2.5H9.79166C8.70905 1.8 8.36822 1.6 8.33815 1.6C8.30808 1.6 7.96725 1.8 7.58633 2.05L6.88464 2.5ZM2.54416 16.62C2.53413 16.67 2.77472 16.67 3.09549 16.64C3.41626 16.6 3.78716 16.6 3.9275 16.63C4.10794 16.67 4.2583 16.85 4.47883 17.3C4.63922 17.63 4.79961 17.91 4.82968 17.91C4.84973 17.91 5.27074 17.23 5.7519 16.41C6.23307 15.58 6.63404 14.86 6.63404 14.8C6.63404 14.74 6.33331 14.72 5.80203 14.76C5.15045 14.81 4.90987 14.79 4.64924 14.66C4.46881 14.58 4.32847 14.47 4.32847 14.43C4.32847 14.39 4.26832 14.27 4.19815 14.17C4.08789 14 3.99767 14.11 3.32605 15.26C2.90503 15.97 2.55418 16.58 2.54416 16.62ZM11.9769 14.68C11.7765 14.78 11.4457 14.8 10.8643 14.76C10.343 14.72 10.0423 14.74 10.0423 14.8C10.0423 14.86 10.4332 15.58 10.9144 16.41C11.3955 17.23 11.8165 17.91 11.8466 17.91C11.8667 17.91 12.007 17.68 12.1473 17.4C12.2777 17.11 12.4781 16.81 12.5784 16.72C12.7288 16.58 12.8791 16.56 13.4505 16.63C13.8314 16.67 14.1522 16.69 14.1522 16.68C14.1522 16.66 13.8114 16.07 13.3904 15.35C12.9794 14.64 12.6185 14.04 12.6085 14.02C12.5884 14 12.5082 14.11 12.428 14.27C12.3378 14.42 12.1373 14.61 11.9769 14.68Z" fill="#0460A9"/>
<path fill-rule="evenodd" clip-rule="evenodd" d="M8.3181 1C8.43839 1 8.689 1.07 8.86943 1.17C9.03984 1.26 9.37064 1.46 9.59118 1.62C9.9721 1.9 10.0322 1.91 10.9545 1.88C11.6963 1.86 11.9569 1.88 12.0972 2C12.1975 2.08 12.408 2.42 12.5684 2.75C12.7388 3.08 12.9493 3.43 13.0395 3.54C13.1297 3.64 13.5006 3.87 13.8815 4.06C14.2524 4.25 14.6233 4.5 14.7035 4.62C14.8338 4.8 14.8539 5.02 14.7336 6.55L15.1947 7.25C15.4553 7.63 15.6658 8.02 15.6658 8.1C15.6759 8.18 15.6658 8.34 15.6558 8.45C15.6458 8.56 15.4353 8.94 14.7436 9.95L14.8038 10.8C14.8439 11.41 14.8238 11.72 14.7336 11.9C14.6434 12.05 14.2925 12.3 13.8013 12.55C13.3102 12.79 12.9894 13.02 12.9794 13.12C12.9593 13.22 13.4204 14.12 14.0018 15.12C14.5832 16.13 15.0644 17.03 15.0544 17.12C15.0544 17.28 14.9441 17.3 12.9292 17.25L12.4882 18.12C12.1874 18.72 11.987 19 11.8767 19C11.7464 19 11.3554 18.42 10.5735 17.05C9.95205 15.98 9.41074 15.11 9.37064 15.13C9.32052 15.14 9.07994 15.27 8.33815 15.65L7.86701 15.4C7.59636 15.27 7.35578 15.14 7.31568 15.13C7.26556 15.11 6.72425 15.98 6.11278 17.05C5.32086 18.42 4.92992 19 4.80963 19C4.68934 19 4.48885 18.72 3.74706 17.25L2.6845 17.27C1.7322 17.3 1.62193 17.28 1.62193 17.12C1.62193 17.03 2.09307 16.13 2.67447 15.12C3.25588 14.12 3.71699 13.22 3.69694 13.12C3.68692 13.02 3.36614 12.79 2.87496 12.55C2.38377 12.3 2.03292 12.05 1.95273 11.9C1.85249 11.72 1.83244 11.4 1.93268 9.95L1.48159 9.27C1.23099 8.9 1.01046 8.48 1.00043 8.32C0.990407 8.15 1.15079 7.79 1.94271 6.55L1.88256 5.75C1.83244 5.19 1.85249 4.88 1.94271 4.7C2.0229 4.56 2.36372 4.3 2.73462 4.1C3.10551 3.91 3.47641 3.68 3.57665 3.6C3.67689 3.52 3.89743 3.16 4.07786 2.8C4.2583 2.44 4.47883 2.08 4.56905 2C4.69936 1.89 4.95999 1.86 5.71181 1.88C6.64406 1.91 6.7042 1.9 7.08512 1.62C7.30566 1.46 7.61641 1.26 7.78682 1.17C7.95723 1.08 8.18779 1.01 8.3181 1V1ZM6.88464 2.5H4.92992C4.39864 3.55 4.14803 3.94 4.02774 4.05C3.90745 4.16 3.53656 4.39 3.19573 4.56L2.57423 4.86C2.47399 6.83 2.46397 6.88 2.05297 7.51C1.81239 7.86 1.62193 8.21 1.62193 8.27C1.62193 8.34 1.82242 8.7 2.07302 9.07L2.52411 9.75V11.7C4.06784 12.45 4.07786 12.46 4.49888 13.25L4.9199 14.05H6.88464C7.89709 14.71 8.25796 14.91 8.33815 14.91C8.41834 14.91 8.77922 14.71 9.14009 14.48L9.79166 14.05H11.7564C12.5984 12.46 12.6085 12.45 13.3703 12.08L14.1522 11.7V9.75C14.8539 8.7 15.0544 8.34 15.0544 8.27C15.0544 8.21 14.8639 7.86 14.6233 7.51C14.2123 6.88 14.2023 6.83 14.1522 5.86L14.1021 4.86C13.1397 4.39 12.7688 4.16 12.6486 4.05C12.5283 3.94 12.2777 3.55 12.0872 3.17L11.7464 2.5H9.79166C8.70905 1.8 8.36822 1.6 8.33815 1.6C8.30808 1.6 7.96725 1.8 7.58633 2.05L6.88464 2.5ZM2.54416 16.62C2.53413 16.67 2.77472 16.67 3.09549 16.64C3.41626 16.6 3.78716 16.6 3.9275 16.63C4.10794 16.67 4.2583 16.85 4.47883 17.3C4.63922 17.63 4.79961 17.91 4.82968 17.91C4.84973 17.91 5.27074 17.23 5.7519 16.41C6.23307 15.58 6.63404 14.86 6.63404 14.8C6.63404 14.74 6.33331 14.72 5.80203 14.76C5.15045 14.81 4.90987 14.79 4.64924 14.66C4.46881 14.58 4.32847 14.47 4.32847 14.43C4.32847 14.39 4.26832 14.27 4.19815 14.17C4.08789 14 3.99767 14.11 3.32605 15.26C2.90503 15.97 2.55418 16.58 2.54416 16.62ZM11.9769 14.68C11.7765 14.78 11.4457 14.8 10.8643 14.76C10.343 14.72 10.0423 14.74 10.0423 14.8C10.0423 14.86 10.4332 15.58 10.9144 16.41C11.3955 17.23 11.8165 17.91 11.8466 17.91C11.8667 17.91 12.007 17.68 12.1473 17.4C12.2777 17.11 12.4781 16.81 12.5784 16.72C12.7288 16.58 12.8791 16.56 13.4505 16.63C13.8314 16.67 14.1522 16.69 14.1522 16.68C14.1522 16.66 13.8114 16.07 13.3904 15.35C12.9794 14.64 12.6185 14.04 12.6085 14.02C12.5884 14 12.5082 14.11 12.428 14.27C12.3378 14.42 12.1373 14.61 11.9769 14.68Z" stroke="#0460A9" stroke-width="0.2" mask="url(#path-1-outside-1_14_377)"/>
</g>
<g id="Vector_2">
<path d="M6.56399 1.85982C6.49382 1.87982 6.37353 1.87982 6.31338 1.85982C6.24321 1.82982 6.29333 1.81982 6.43367 1.81982C6.57401 1.81982 6.62413 1.82982 6.56399 1.85982Z" fill="black" fill-opacity="0.3"/>
<path d="M10.3732 1.85982C10.303 1.87982 10.1827 1.87982 10.1226 1.85982C10.0524 1.82982 10.1025 1.81982 10.2429 1.81982C10.3832 1.81982 10.4333 1.82982 10.3732 1.85982Z" fill="black" fill-opacity="0.3"/>
</g>
<path id="Vector_3" d="M12.9476 7.15741L12.9477 7.15777C13.0285 7.48052 13.0995 7.96473 13.0995 8.24993C13.0995 8.52478 13.0287 9.0485 12.9378 9.41146C12.8564 9.77616 12.6544 10.2902 12.4916 10.5745C12.3383 10.8496 11.9646 11.3228 11.6614 11.6154C11.3464 11.9395 10.8408 12.3026 10.4148 12.505C9.93946 12.737 9.47301 12.8788 8.99562 12.9296C8.6106 12.98 7.9954 12.9801 7.63 12.9295M12.9476 7.15741L7.63645 12.8799M12.9476 7.15741C12.8665 6.84392 12.6748 6.34064 12.5227 6.04722M12.9476 7.15741L8.23591 3.55997M7.63 12.9295C7.62986 12.9295 7.62973 12.9295 7.62959 12.9295L7.63645 12.8799M7.63 12.9295C7.63014 12.9295 7.63028 12.9295 7.63041 12.9296L7.63645 12.8799M7.63 12.9295C7.21246 12.8787 6.70619 12.7167 6.26173 12.5051M7.63645 12.8799C7.22546 12.8299 6.72425 12.6699 6.28318 12.4599M6.26173 12.5051L6.28318 12.4599M6.26173 12.5051C5.83566 12.3027 5.32991 11.9395 5.01492 11.6154M6.26173 12.5051C6.26172 12.5051 6.2617 12.5051 6.26169 12.5051L6.28318 12.4599M6.28318 12.4599L5.01492 11.6154M5.01492 11.6154C5.01511 11.6155 5.01531 11.6157 5.0155 11.6159L5.05021 11.5799L5.01434 11.6148C5.01453 11.615 5.01472 11.6152 5.01492 11.6154ZM8.23591 3.55997C8.49115 3.54978 8.94624 3.59027 9.25011 3.6509C9.55515 3.71176 10.1003 3.8931 10.4651 4.07495C10.8517 4.25778 11.3673 4.63115 11.6915 4.95453C12.0047 5.26698 12.3792 5.76102 12.5227 6.04722M8.23591 3.55997C7.98351 3.57004 7.57981 3.61025 7.32594 3.6609C7.06957 3.71205 6.57418 3.89394 6.21099 4.07507C5.83495 4.25761 5.30933 4.63081 4.98482 4.95453C4.67162 5.26698 4.29714 5.76102 4.1536 6.04722L8.23591 3.55997ZM12.5227 6.04722C12.5227 6.04732 12.5228 6.04742 12.5228 6.04753L12.4781 6.06993L12.5225 6.04691C12.5226 6.04702 12.5226 6.04712 12.5227 6.04722ZM4.18469 10.5745C4.18474 10.5746 4.18479 10.5747 4.18484 10.5748L4.22822 10.5499L4.18454 10.5743C4.18459 10.5743 4.18464 10.5744 4.18469 10.5745ZM3.7385 9.41145C3.73855 9.41166 3.7386 9.41187 3.73866 9.41208L3.78716 9.39993L3.73835 9.4108C3.7384 9.41102 3.73845 9.41123 3.7385 9.41145ZM6.58556 4.69498L6.58556 4.69498L6.58618 4.69467C6.86313 4.55653 7.29999 4.40804 7.54599 4.35896C7.79477 4.30933 8.10343 4.26964 8.24146 4.2598C8.30666 4.25516 8.42797 4.26214 8.57317 4.27837C8.71722 4.29447 8.8812 4.31926 9.03006 4.34896C9.3265 4.40811 9.81337 4.56661 10.1011 4.69514C10.3773 4.8331 10.8238 5.13985 11.0913 5.37703C11.3473 5.61283 11.6944 6.06766 11.8728 6.38369C12.0412 6.71004 12.2395 7.25466 12.3087 7.60911C12.3978 8.10305 12.3978 8.39702 12.3086 8.89105L12.3085 8.89169C12.2491 9.24733 12.0801 9.78247 11.9322 10.0775C11.7846 10.3721 11.4471 10.8278 11.1898 11.0845L11.1891 11.0852C10.9333 11.3502 10.4174 11.7068 10.0515 11.8745L10.0515 11.8745L10.0503 11.875C9.73469 12.03 9.55207 12.1097 9.32754 12.152C9.10123 12.1948 8.83058 12.1999 8.33815 12.1999C7.84569 12.1999 7.57508 12.1948 7.35006 12.1521C7.1269 12.1097 6.94685 12.0301 6.6363 11.8752L6.63632 11.8751L6.63436 11.8743C6.25877 11.7066 5.74295 11.3502 5.48715 11.0852L5.48649 11.0845C5.22916 10.8278 4.89171 10.3721 4.74406 10.0775C4.59618 9.78247 4.42717 9.24733 4.36776 8.89169L4.36776 8.89169L4.36765 8.89105C4.27851 8.39704 4.27849 8.10308 4.36758 7.60916C4.43673 7.25471 4.63511 6.71005 4.80351 6.38369C4.98197 6.06746 5.32918 5.61271 5.59462 5.37734L5.59462 5.37735L5.59531 5.37671C5.85262 5.13977 6.29966 4.83266 6.58556 4.69498ZM10.6425 8.51058L10.6426 8.50989C10.7129 8.16432 10.7756 7.82118 10.8209 7.54424C10.8658 7.26938 10.8942 7.05487 10.8942 6.96993C10.8942 6.86892 10.8822 6.78678 10.8406 6.73026C10.7955 6.66913 10.7258 6.64993 10.6437 6.64993C10.6057 6.64993 10.5553 6.66526 10.5018 6.68662C10.4462 6.70878 10.3805 6.74032 10.3094 6.77833C10.167 6.85442 9.99985 6.95805 9.84296 7.06912L9.29652 7.45447C9.00112 7.15133 8.79094 6.9517 8.64364 6.82679C8.56763 6.76234 8.50729 6.71686 8.45988 6.68722C8.41509 6.65921 8.37369 6.63993 8.33815 6.63993C8.31939 6.63993 8.30017 6.64522 8.28283 6.65176C8.26479 6.65857 8.24521 6.66812 8.22475 6.67959C8.18379 6.70253 8.13603 6.73495 8.08484 6.77388C7.98236 6.85184 7.86272 6.95854 7.7509 7.07515C7.75084 7.07521 7.75078 7.07527 7.75073 7.07532L7.37987 7.45453C6.95197 7.1531 6.65061 6.9546 6.4415 6.83067C6.33419 6.76707 6.25024 6.72254 6.18536 6.69376C6.12228 6.66577 6.07141 6.64993 6.03258 6.64993C5.95053 6.64993 5.88076 6.66913 5.8357 6.73026C5.79405 6.78678 5.7821 6.86892 5.7821 6.96993C5.7821 7.05487 5.81054 7.26938 5.85542 7.54424C5.90065 7.82118 5.96342 8.16432 6.0337 8.50989L6.0337 8.5099L6.03385 8.51058C6.10902 8.85553 6.17925 9.17583 6.23447 9.41493C6.26206 9.53443 6.286 9.63406 6.30499 9.70651C6.31446 9.74267 6.32285 9.77262 6.32996 9.7951C6.3335 9.80629 6.33691 9.81625 6.34016 9.82447C6.34238 9.83009 6.34575 9.8382 6.35047 9.84561C6.35669 9.85642 6.36516 9.86287 6.36995 9.86608C6.37653 9.87049 6.38342 9.87357 6.38915 9.87576C6.40073 9.88019 6.41478 9.88373 6.42972 9.88674C6.46006 9.89285 6.50188 9.89832 6.55291 9.90329C6.65538 9.91327 6.80031 9.92175 6.97666 9.92864C7.32965 9.94243 7.81151 9.94993 8.33815 9.94993C8.86478 9.94993 9.34665 9.94243 9.69963 9.92864C9.87599 9.92175 10.0209 9.91327 10.1234 9.90329C10.1744 9.89832 10.2162 9.89285 10.2466 9.88674C10.2615 9.88373 10.2756 9.88019 10.2871 9.87576C10.2929 9.87357 10.2998 9.87049 10.3063 9.86608C10.3111 9.86287 10.3196 9.85642 10.3258 9.84561C10.3305 9.8382 10.3339 9.83009 10.3361 9.82447C10.3394 9.81625 10.3428 9.80629 10.3463 9.7951C10.3534 9.77262 10.3618 9.74267 10.3713 9.70651C10.3903 9.63406 10.4142 9.53443 10.4418 9.41493C10.497 9.17583 10.5673 8.85553 10.6425 8.51058ZM6.67814 7.92559L6.65627 7.8113C6.65721 7.81197 6.65817 7.81264 6.65912 7.81331C6.72283 7.85817 6.81026 7.92047 6.90514 7.99022C7.00347 8.06249 7.11684 8.12673 7.22002 8.17304C7.32093 8.21835 7.41953 8.24993 7.48609 8.24993C7.52429 8.24993 7.56653 8.23651 7.60778 8.21728C7.64995 8.19761 7.69534 8.16983 7.74103 8.13662C7.83238 8.07023 7.92841 7.97958 8.00646 7.88096C8.08034 7.7876 8.15891 7.70194 8.22458 7.64007C8.25751 7.60904 8.28633 7.58482 8.30909 7.5687C8.32051 7.56061 8.32943 7.55527 8.33587 7.55213C8.33726 7.55146 8.33839 7.55095 8.33928 7.55058C8.34051 7.551 8.34225 7.55166 8.34454 7.5527C8.35137 7.55581 8.36052 7.56106 8.37206 7.56903C8.39512 7.58497 8.42375 7.609 8.45673 7.64007C8.52233 7.70188 8.60097 7.78757 8.68036 7.88159C8.75799 7.97957 8.85108 8.06989 8.93972 8.13621C8.98414 8.16945 9.02831 8.19731 9.06965 8.21707C9.11014 8.23642 9.15185 8.24993 9.1902 8.24993C9.25676 8.24993 9.35536 8.21835 9.45627 8.17304C9.55945 8.12673 9.67283 8.06249 9.77115 7.99022C9.86604 7.92047 9.95346 7.85817 10.0172 7.81331C10.0181 7.81262 10.0191 7.81194 10.0201 7.81126C10.0102 7.86306 9.99681 7.93336 9.97935 8.02563C9.934 8.26527 9.8611 8.65311 9.7501 9.24993H6.92611L6.78346 8.49096C6.78345 8.49092 6.78345 8.49087 6.78344 8.49082C6.74332 8.27072 6.70572 8.07065 6.67814 7.92559Z" fill="#0460A9" stroke="#0460A9" stroke-width="0.1"/>
<path id="Vector_4" d="M9.24032 9.97019C8.71906 9.99019 7.88705 9.99019 7.38584 9.97019C6.88463 9.96019 7.31567 9.94019 8.33814 9.94019C9.36061 9.94019 9.76157 9.96019 9.24032 9.97019Z" fill="black" fill-opacity="0.4"/>
</g>
</g>
</svg>
