<svg width="17" height="17" viewBox="0 0 17 17" fill="none" xmlns="http://www.w3.org/2000/svg">
<rect x="0.5" y="0.5" width="16" height="16" rx="8" fill="#221F1F"/>
<rect x="0.5" y="0.5" width="16" height="16" rx="8" stroke="#221F1F"/>
<path d="M4.39901 13.1061L4.50507 13.2121L4.61114 13.1061L8.5 9.21721L12.3889 13.1061L12.4949 13.2121L12.601 13.1061L13.1061 12.601L13.2121 12.4949L13.1061 12.3889L9.21721 8.5L13.1061 4.61114L13.2121 4.50507L13.1061 4.39901L12.601 3.89393L12.4949 3.78787L12.3889 3.89393L8.5 7.78279L4.61114 3.89393L4.50507 3.78787L4.39901 3.89393L3.89393 4.39901L3.78787 4.50507L3.89393 4.61114L7.78279 8.5L3.89393 12.3889L3.78787 12.4949L3.89393 12.601L4.39901 13.1061Z" fill="white" stroke="white" stroke-width="0.3"/>
</svg>
