<svg width="18" height="18" viewBox="0 0 18 18" fill="none" xmlns="http://www.w3.org/2000/svg">
<g id="image 3_layerstyle">
<path id="Path 0" fill-rule="evenodd" clip-rule="evenodd" d="M13.9419 0.000371765C14.1529 -0.00314447 14.2794 0.017953 14.4517 0.077729C14.5783 0.12344 14.7506 0.20783 14.8385 0.267606C14.9264 0.323866 15.0601 0.443418 15.1374 0.531324C15.2148 0.615714 15.3203 0.773944 15.3695 0.879431C15.4222 0.984919 15.4785 1.1537 15.5031 1.25567C15.5242 1.35412 15.5418 1.74091 15.5418 2.79227L16.0059 2.81336C16.3751 2.83094 16.5228 2.85556 16.7021 2.91885C16.8287 2.96456 17.0116 3.05247 17.1065 3.11576C17.205 3.17554 17.3632 3.30915 17.4616 3.41464C17.5601 3.51661 17.6796 3.67133 17.7324 3.75923C17.7816 3.84714 17.859 4.0124 17.9047 4.12844C17.982 4.33589 17.982 4.37106 18.0067 7.85565L17.9188 8.11937C17.8695 8.26353 17.7676 8.47802 17.6937 8.59406C17.6199 8.7101 17.4792 8.87887 17.3843 8.96678C17.2893 9.05469 17.1417 9.16721 17.0538 9.21995C16.9659 9.26918 16.8006 9.34654 16.6846 9.38873C16.4876 9.46257 16.4068 9.4696 14.4166 9.4907V12.3213C14.4166 14.2587 14.406 15.2116 14.3779 15.3382C14.3568 15.4367 14.2794 15.6301 14.2091 15.7637C14.1353 15.9078 14.0122 16.0731 13.9032 16.168C13.8083 16.2559 13.6395 16.372 13.534 16.4212C13.4285 16.474 13.2597 16.5337 13.1613 16.5548C13.0277 16.583 11.4946 16.5935 2.79541 16.5935L1.74054 17.2968C0.787638 17.9332 0.671602 18 0.537985 18C0.443046 18 0.341075 17.9719 0.260202 17.9226C0.189877 17.8769 0.101971 17.782 0.0668085 17.7117C0.00351624 17.5816 0 17.3706 0 7.01175L0.0808735 6.7832C0.126585 6.65661 0.210974 6.48432 0.27075 6.39641C0.32701 6.3085 0.446562 6.17489 0.534468 6.09753C0.618858 6.02017 0.777089 5.91469 0.882576 5.86546C0.988063 5.81271 1.15684 5.75645 1.25881 5.73184C1.3854 5.70371 2.38401 5.69316 7.80605 5.69316V4.46248C7.80605 3.30212 7.80957 3.22476 7.87638 3.09115C7.92326 2.99738 7.99358 2.92705 8.08735 2.88017C8.22097 2.81336 8.29832 2.80985 9.38836 2.80985C10.4784 2.80985 10.5557 2.81336 10.6894 2.88017C10.7831 2.92705 10.8535 2.99738 10.9003 3.09115C10.939 3.1685 10.9707 3.25641 10.9707 3.28454C10.9707 3.31619 10.9953 3.33025 11.034 3.32322C11.0656 3.31267 11.2133 3.27399 11.3575 3.2318C11.5016 3.1896 11.6845 3.11928 11.7618 3.07356C11.8392 3.03137 11.9658 2.92588 12.0396 2.84149C12.117 2.7571 12.2189 2.59887 12.2682 2.49339C12.3455 2.32461 12.3596 2.22967 12.3807 1.77256C12.3947 1.38577 12.4194 1.19238 12.4721 1.05173C12.5073 0.94624 12.5881 0.788009 12.6479 0.700103C12.7042 0.612197 12.8237 0.47858 12.9116 0.401223C12.996 0.323866 13.1296 0.228927 13.207 0.193765C13.2808 0.155086 13.4145 0.0988265 13.5024 0.0636641C13.6008 0.0249854 13.7661 0.003888 13.9419 0.000371765ZM13.4953 1.34006C13.4496 1.42796 13.4355 1.55103 13.432 1.84288C13.432 2.05737 13.4074 2.34219 13.3793 2.4758C13.3476 2.61294 13.2738 2.83094 13.2105 2.96808C13.1507 3.10169 13.0206 3.30915 12.9292 3.42519C12.8343 3.54122 12.676 3.70297 12.5776 3.78736C12.4756 3.87175 12.2857 3.9913 12.1486 4.05811C12.015 4.12492 11.6915 4.23744 11.4348 4.31128L10.9707 4.4449L10.9671 7.57435C11.15 7.82049 11.2836 7.94707 11.3785 8.0174C11.4735 8.08772 11.6352 8.18618 11.7372 8.23892C11.8357 8.28815 12.0185 8.35496 12.1416 8.38309C12.3209 8.42528 12.7042 8.43583 14.2759 8.43583C15.9919 8.43583 16.2099 8.4288 16.3681 8.37605C16.4736 8.34089 16.6002 8.26002 16.6881 8.17563C16.7725 8.08772 16.8533 7.96114 16.8885 7.85565C16.9412 7.70093 16.9483 7.50051 16.9483 6.15027C16.9483 4.80004 16.9412 4.59961 16.8885 4.4449C16.8533 4.33941 16.7725 4.21283 16.6881 4.12492C16.6002 4.04053 16.4736 3.95966 16.3681 3.92449C16.2274 3.87527 16.0657 3.86472 15.5523 3.86472C14.9792 3.86472 14.8948 3.85769 14.7682 3.79439C14.6744 3.74751 14.6041 3.67719 14.5572 3.58342C14.4904 3.45332 14.4869 3.37245 14.4869 2.45822C14.4869 1.544 14.4834 1.46313 14.4166 1.33303C14.3697 1.23926 14.2994 1.16894 14.2056 1.12205C14.1282 1.08337 14.0122 1.05173 13.9524 1.05173C13.8891 1.05173 13.7731 1.09041 13.6958 1.13963C13.6184 1.18534 13.527 1.27677 13.4953 1.34006ZM8.86092 8.43583H9.91579V3.86472H8.86092V8.43583ZM1.31859 6.83594C1.24123 6.88165 1.14981 6.97307 1.11816 7.03637C1.0619 7.14537 1.05839 7.48996 1.05487 11.8185V16.488L2.44379 15.5562C12.6549 15.5211 12.9995 15.5175 13.1085 15.4578C13.1718 15.4261 13.2527 15.3347 13.2914 15.2573C13.3617 15.1202 13.3617 15.0464 13.3617 12.3037V9.4907C12.2224 9.46609 12.0185 9.44851 11.8146 9.39225C11.6704 9.35357 11.4243 9.25863 11.2695 9.18127L10.9882 9.03711C10.8546 9.30082 10.7878 9.37115 10.6894 9.42038C10.5557 9.48718 10.4784 9.4907 9.38836 9.4907C8.29832 9.4907 8.22097 9.48718 8.08735 9.42038C7.99358 9.37349 7.92326 9.30317 7.87638 9.2094C7.80957 9.07578 7.80605 8.99843 7.80605 7.90839V6.74803H1.45924L1.31859 6.83594ZM4.38827 8.86129C6.18858 8.86129 6.26242 8.86129 6.39955 8.93162C6.49332 8.9785 6.56365 9.04883 6.61053 9.14259C6.64921 9.21995 6.68085 9.32895 6.68085 9.38873C6.68085 9.44499 6.64921 9.55751 6.61053 9.63487C6.56365 9.72863 6.49332 9.79896 6.39955 9.84584C6.26594 9.91265 6.18858 9.91617 4.3953 9.91617C2.60202 9.91617 2.52466 9.91265 2.39104 9.84584C2.29728 9.79896 2.22695 9.72863 2.18007 9.63487C2.14139 9.55751 2.10974 9.44499 2.10974 9.38873C2.10974 9.32895 2.14139 9.21995 2.18007 9.14259C2.22578 9.05117 2.29962 8.97381 2.38401 8.93162C2.50708 8.86481 2.5985 8.86129 4.38827 8.86129ZM7.20126 10.971C11.8146 10.971 11.8884 10.971 12.0255 11.0414C12.1193 11.0882 12.1896 11.1586 12.2365 11.2523C12.2752 11.3297 12.3068 11.4387 12.3068 11.4985C12.3068 11.5547 12.2752 11.6673 12.2365 11.7446C12.1896 11.8384 12.1193 11.9087 12.0255 11.9556C11.8884 12.0224 11.8146 12.0259 7.20829 12.0259C2.60202 12.0259 2.52818 12.0224 2.39104 11.9556C2.29728 11.9087 2.22695 11.8384 2.18007 11.7446C2.14139 11.6673 2.10974 11.5547 2.10974 11.4985C2.10974 11.4387 2.14139 11.3297 2.18007 11.2523C2.22578 11.1609 2.29962 11.0836 2.38401 11.0414C2.51059 10.9746 2.6196 10.971 7.20126 10.971ZM7.20126 13.0808C11.8146 13.0808 11.8884 13.0808 12.0255 13.1511C12.1193 13.198 12.1896 13.2683 12.2365 13.3621C12.2752 13.4394 12.3068 13.5484 12.3068 13.6082C12.3068 13.6645 12.2752 13.777 12.2365 13.8544C12.1896 13.9481 12.1193 14.0184 12.0255 14.0653C11.8884 14.1321 11.8146 14.1357 7.20829 14.1357C2.60202 14.1357 2.52818 14.1321 2.39104 14.0653C2.29728 14.0184 2.22695 13.9481 2.18007 13.8544C2.14139 13.777 2.10974 13.6645 2.10974 13.6082C2.10974 13.5484 2.14139 13.4394 2.18007 13.3621C2.22578 13.2707 2.29962 13.1933 2.38401 13.1511C2.51059 13.0843 2.6196 13.0808 7.20126 13.0808Z" fill="black"/>
</g>
</svg>
