<svg width="21" height="21" viewBox="0 0 21 21" fill="none" xmlns="http://www.w3.org/2000/svg">
<g id="system-uicons:home-door">
<g id="Group">
<path id="Vector" opacity="0.6" d="M1.5 10.5L10.5 1.5L19.5 10.5" stroke="#0460A9" stroke-linecap="round" stroke-linejoin="round"/>
<path id="Vector_2" d="M3.5 8.5V16.5C3.5 16.7652 3.60536 17.0196 3.79289 17.2071C3.98043 17.3946 4.23478 17.5 4.5 17.5H7.5C7.76522 17.5 8.01957 17.3946 8.20711 17.2071C8.39464 17.0196 8.5 16.7652 8.5 16.5V12.5C8.5 12.2348 8.60536 11.9804 8.79289 11.7929C8.98043 11.6054 9.23478 11.5 9.5 11.5H11.5C11.7652 11.5 12.0196 11.6054 12.2071 11.7929C12.3946 11.9804 12.5 12.2348 12.5 12.5V16.5C12.5 16.7652 12.6054 17.0196 12.7929 17.2071C12.9804 17.3946 13.2348 17.5 13.5 17.5H16.5C16.7652 17.5 17.0196 17.3946 17.2071 17.2071C17.3946 17.0196 17.5 16.7652 17.5 16.5V8.5" stroke="#0460A9" stroke-linecap="round" stroke-linejoin="round"/>
</g>
</g>
</svg>
