<?xml version="1.0" encoding="UTF-8" standalone="no" ?>
<!DOCTYPE svg PUBLIC "-//W3C//DTD SVG 1.1//EN" "http://www.w3.org/Graphics/SVG/1.1/DTD/svg11.dtd">
<svg xmlns="http://www.w3.org/2000/svg" xmlns:xlink="http://www.w3.org/1999/xlink" version="1.1" width="1080" height="1080" viewBox="0 0 1080 1080" xml:space="preserve">
<desc>Created with Fabric.js 5.2.4</desc>
<defs>
</defs>
<g transform="matrix(1 0 0 1 540 540)" id="0afc6cf3-60fd-4eb9-a803-4f86fb198f57"  >
<rect style="stroke: none; stroke-width: 1; stroke-dasharray: none; stroke-linecap: butt; stroke-dashoffset: 0; stroke-linejoin: miter; stroke-miterlimit: 4; fill: rgb(255,255,255); fill-rule: nonzero; opacity: 1; visibility: hidden;" vector-effect="non-scaling-stroke"  x="-540" y="-540" rx="0" ry="0" width="1080" height="1080" />
</g>
<g transform="matrix(1 0 0 1 540 540)" id="930a22d8-fd67-417c-8f40-2fd97d38ead4"  >
</g>
<g transform="matrix(13.17 0 0 13.17 540 540)"  >
<g style=""   >
		<g transform="matrix(1 0 0 1 0.61 0)"  >
<rect style="stroke: rgb(217,217,217); stroke-width: 1; stroke-dasharray: none; stroke-linecap: butt; stroke-dashoffset: 0; stroke-linejoin: miter; stroke-miterlimit: 4; fill: rgb(242,244,245); fill-rule: nonzero; opacity: 1;" vector-effect="non-scaling-stroke"  x="-39.5" y="-14.5" rx="1.5" ry="1.5" width="79" height="29" />
</g>
		<g transform="matrix(1 0 0 1 21.34 0.38)"  >
<path style="stroke: none; stroke-width: 1; stroke-dasharray: none; stroke-linecap: butt; stroke-dashoffset: 0; stroke-linejoin: miter; stroke-miterlimit: 4; fill: rgb(34,31,31); fill-opacity: 0.2; fill-rule: nonzero; opacity: 1;" vector-effect="non-scaling-stroke"  transform=" translate(-62.34, -15.38)" d="M 70.1827 9 L 54.4904 9 C 54.3603 9 54.2356 9.05167 54.1436 9.14363 C 54.0517 9.2356 54 9.36033 54 9.49038 L 54 20.6058 C 54 20.9092 54.1206 21.2003 54.3351 21.4149 C 54.5497 21.6294 54.8408 21.75 55.1442 21.75 L 69.5288 21.75 C 69.8323 21.75 70.1234 21.6294 70.3379 21.4149 C 70.5525 21.2003 70.6731 20.9092 70.6731 20.6058 L 70.6731 9.49038 C 70.6731 9.36033 70.6214 9.2356 70.5294 9.14363 C 70.4375 9.05167 70.3127 9 70.1827 9 Z M 54.9808 13.9038 L 58.5769 13.9038 L 58.5769 16.8462 L 54.9808 16.8462 L 54.9808 13.9038 Z M 59.5577 13.9038 L 69.6923 13.9038 L 69.6923 16.8462 L 59.5577 16.8462 L 59.5577 13.9038 Z M 69.6923 9.98077 L 69.6923 12.9231 L 54.9808 12.9231 L 54.9808 9.98077 L 69.6923 9.98077 Z M 54.9808 20.6058 L 54.9808 17.8269 L 58.5769 17.8269 L 58.5769 20.7692 L 55.1442 20.7692 C 55.1009 20.7692 55.0593 20.752 55.0286 20.7214 C 54.998 20.6907 54.9808 20.6491 54.9808 20.6058 Z M 69.5288 20.7692 L 59.5577 20.7692 L 59.5577 17.8269 L 69.6923 17.8269 L 69.6923 20.6058 C 69.6923 20.6491 69.6751 20.6907 69.6444 20.7214 C 69.6138 20.752 69.5722 20.7692 69.5288 20.7692 Z" stroke-linecap="round" />
</g>
		<g transform="matrix(1 0 0 1 -19.69 0)"  >
<path style="stroke: rgb(217,217,217); stroke-width: 1; stroke-dasharray: none; stroke-linecap: butt; stroke-dashoffset: 0; stroke-linejoin: miter; stroke-miterlimit: 4; fill: rgb(255,255,255); fill-rule: nonzero; opacity: 1;" vector-effect="non-scaling-stroke"  transform=" translate(-21.31, -15)" d="M 41.8052 1 L 41.8052 0.5 L 41.3052 0.5 L 3.30518 0.5 C 1.92446 0.5 0.805176 1.61929 0.805176 3 L 0.805176 27 C 0.805176 28.3807 1.92446 29.5 3.30518 29.5 L 41.3052 29.5 L 41.8052 29.5 L 41.8052 29 L 41.8052 1 Z" stroke-linecap="round" />
</g>
		<g transform="matrix(1 0 0 1 -19.08 0)"  >
<path style="stroke: none; stroke-width: 1; stroke-dasharray: none; stroke-linecap: butt; stroke-dashoffset: 0; stroke-linejoin: miter; stroke-miterlimit: 4; fill: rgb(34,31,31); fill-rule: nonzero; opacity: 1;" vector-effect="non-scaling-stroke"  transform=" translate(-21.92, -15)" d="M 18.6898 20.9231 L 17.6129 20.9231 L 17.6129 15.5385 L 15.459 15.5385 L 15.459 20.9231 L 14.3821 20.9231 L 14.3821 14.4615 L 18.6898 14.4615 L 18.6898 20.9231 Z M 24.0744 20.9231 L 22.9975 20.9231 L 22.9975 12.3077 L 20.8436 12.3077 L 20.8436 20.9231 L 19.7667 20.9231 L 19.7667 11.2308 L 24.0744 11.2308 L 24.0744 20.9231 Z M 29.459 20.9231 L 28.3821 20.9231 L 28.3821 9.07692 L 26.2283 9.07692 L 26.2283 20.9231 L 25.1513 20.9231 L 25.1513 8 L 29.459 8 L 29.459 20.9231 Z M 13.3052 20.9231 L 30.5359 20.9231 L 30.5359 22 L 13.3052 22 L 13.3052 20.9231 Z" stroke-linecap="round" />
</g>
</g>
</g>
</svg>